<?xml version="1.0" encoding="UTF-8"?>
<svg version="1.1" xmlns="http://www.w3.org/2000/svg" width="1080" height="1080">
<path d="M0 0 C356.4 0 712.8 0 1080 0 C1080 356.4 1080 712.8 1080 1080 C723.6 1080 367.2 1080 0 1080 C0 723.6 0 367.2 0 0 Z " fill="#FEFEFE" transform="translate(0,0)"/>
<path d="M0 0 C2.96090177 1.14074823 4.78055442 2.58205317 6.8125 4.984375 C7.58025757 5.88168335 7.58025757 5.88168335 8.36352539 6.79711914 C9.17358032 7.76379517 9.17358032 7.76379517 10 8.75 C10.57032959 9.4195874 11.14065918 10.0891748 11.72827148 10.77905273 C12.91246558 12.16996156 14.09400398 13.56313552 15.27294922 14.95849609 C17.36547851 17.43202309 19.47575229 19.88990017 21.58789062 22.34667969 C23.07258668 24.07423662 24.55432953 25.80428191 26.03515625 27.53515625 C29.02124146 31.02532178 32.01039158 34.51285232 35 38 C36.0000134 39.16665518 37.00001341 40.33332184 38 41.5 C38.495 42.0775 38.99 42.655 39.5 43.25 C89 101 138.5 158.75 212 244.5 C212.49580566 245.07830566 212.99161133 245.65661133 213.50244141 246.25244141 C214.4948405 247.41050999 215.4867092 248.56903332 216.47802734 249.72802734 C219.08998603 252.78032941 221.71271975 255.82245762 224.3515625 258.8515625 C224.89941406 259.48320313 225.44726562 260.11484375 226.01171875 260.765625 C227.06041966 261.97429723 228.1123344 263.18019108 229.16796875 264.3828125 C231.53022515 267.11195886 233.60994594 269.64751667 235 273 C234.16339844 273.71542969 233.32679688 274.43085937 232.46484375 275.16796875 C231.90974121 275.64331055 231.35463867 276.11865234 230.78271484 276.60839844 C229.54055226 277.67141876 228.29736793 278.73324618 227.05322266 279.79394531 C223.62495553 282.72316632 220.22701352 285.6794384 216.87109375 288.69140625 C216.20279541 289.28606689 215.53449707 289.88072754 214.84594727 290.4934082 C213.54893997 291.64935611 212.25882432 292.81309124 210.97631836 293.98510742 C206.4482579 298 206.4482579 298 202 298 C200.04882812 296.74658203 200.04882812 296.74658203 198.03125 295.0078125 C197.29519531 294.38519531 196.55914063 293.76257813 195.80078125 293.12109375 C195.04152344 292.46238281 194.28226563 291.80367187 193.5 291.125 C191.99251793 289.83250689 190.48219752 288.54331521 188.96875 287.2578125 C188.30294922 286.6817627 187.63714844 286.10571289 186.95117188 285.51220703 C185.04296975 284.03330263 183.19235478 282.99658045 181 282 C180.85304688 282.85658203 180.85304688 282.85658203 180.703125 283.73046875 C174.16075119 319.20592675 153.29335484 346.38788695 124.1875 366.625 C111.15547303 375.45677655 98.14750384 382.51826714 83 387 C82.01628418 387.29148926 82.01628418 387.29148926 81.01269531 387.58886719 C57.99597197 393.90299031 32.21998587 385.13358722 12.19140625 373.9765625 C-6.96164374 362.11433081 -24.3709193 344.83177632 -38 327 C-38.69754395 326.10112061 -38.69754395 326.10112061 -39.40917969 325.18408203 C-52.96754077 307.69405748 -64.2985928 289.56898553 -70 268 C-70.32097656 266.79730469 -70.64195312 265.59460938 -70.97265625 264.35546875 C-76.60183798 240.18926067 -72.13437195 216.93097816 -59.125 195.98046875 C-57.18438196 193.21913099 -55.14454408 190.60621677 -53 188 C-52.56171875 187.46310547 -52.1234375 186.92621094 -51.671875 186.37304688 C-30.90468323 161.07016349 -2.05912093 134.07455741 32 130 C37.67434452 129.6369271 43.32366643 129.74709405 49 130 C48.20078125 129.07960938 47.4015625 128.15921875 46.578125 127.2109375 C39.51840995 119.07595186 32.48622751 110.91829097 25.48388672 102.73388672 C23.49104529 100.40529839 21.49635582 98.07829738 19.50146484 95.75146484 C18.50287817 94.58660944 17.50450472 93.42157121 16.50634766 92.25634766 C13.97287723 89.29911478 11.43642376 86.34452942 8.89453125 83.39453125 C4.30393447 78.06164678 -0.25761398 72.71814055 -4.6875 67.25 C-8.23628582 62.87636127 -11.95330327 58.69733154 -15.74609375 54.53515625 C-18.87532281 51.01545146 -21.81938689 47.355925 -24.78125 43.6953125 C-28.0742501 39.69501308 -31.52128406 35.83890997 -35 32 C-33.5045292 28.40278644 -31.47293692 26.36902779 -28.5625 23.8125 C-27.66660156 23.02488281 -26.77070313 22.23726563 -25.84765625 21.42578125 C-22.19792743 18.31675299 -18.48303322 15.29425728 -14.75390625 12.28125 C-11.05917209 9.22064752 -7.52350056 6.00085811 -3.99609375 2.75 C-2 1 -2 1 0 0 Z " fill="#737373" transform="translate(409,347)"/>
<path d="M0 0 C3.81628832 1.54572776 5.97025743 3.88771245 8.6875 6.9375 C9.12247803 7.42404053 9.55745605 7.91058105 10.00561523 8.41186523 C13.7274459 12.60896686 17.26232454 16.95156203 20.78515625 21.31640625 C22.95632827 23.94708557 25.20241357 26.47942424 27.5 29 C31.41891252 33.29991791 35.09170869 37.75919547 38.75 42.28125 C40.93501569 44.92147729 43.19171391 47.4672972 45.5 50 C49.41891252 54.29991791 53.09170869 58.75919547 56.75 63.28125 C58.93501569 65.92147729 61.19171391 68.4672972 63.5 71 C67.41891252 75.29991791 71.09170869 79.75919547 74.75 84.28125 C76.93501569 86.92147729 79.19171391 89.4672972 81.5 92 C85.41891252 96.29991791 89.09170869 100.75919547 92.75 105.28125 C94.93501569 107.92147729 97.19171391 110.4672972 99.5 113 C103.41891252 117.29991791 107.09170869 121.75919547 110.75 126.28125 C112.93501569 128.92147729 115.19171391 131.4672972 117.5 134 C121.41891252 138.29991791 125.09170869 142.75919547 128.75 147.28125 C130.93501569 149.92147729 133.19171391 152.4672972 135.5 155 C139.41891252 159.29991791 143.09170869 163.75919547 146.75 168.28125 C149.63241703 171.76417058 152.6697962 175.08926497 155.71484375 178.4296875 C159.62664212 182.82962481 163.31078806 187.41246931 167 192 C158.94543641 200.14243156 150.4758226 207.73500501 141.55859375 214.91796875 C137.95473237 217.85057656 134.46840205 220.90924631 131 224 C127.3634792 221.26625185 124.56054579 218.4454341 121.75 214.875 C118.76360694 211.14695303 115.722137 207.52632476 112.5 204 C108.58108748 199.70008209 104.90829131 195.24080453 101.25 190.71875 C99.06498431 188.07852271 96.80828609 185.5327028 94.5 183 C91.47717579 179.68010514 88.57487839 176.30235888 85.75 172.8125 C80.53481485 166.37288007 75.08668248 160.14544597 69.64648438 153.89648438 C67.06362591 150.92144811 64.49943086 147.9305594 61.9375 144.9375 C61.20116333 144.07741333 61.20116333 144.07741333 60.44995117 143.19995117 C59.46114797 142.04469482 58.47245951 140.88934024 57.48388672 139.73388672 C54.99104476 136.82105954 52.49537234 133.91065939 50 131 C48.9999866 129.83334482 47.99998659 128.66667816 47 127.5 C46.505 126.9225 46.01 126.345 45.5 125.75 C37.25 116.125 37.25 116.125 29 106.5 C28.50491943 105.92241943 28.00983887 105.34483887 27.49975586 104.74975586 C26.50051604 103.58394896 25.50132977 102.41809614 24.50219727 101.25219727 C21.99100539 98.32199602 19.47886607 95.39261709 16.96484375 92.46484375 C10.2754987 84.6720794 3.62335076 76.84893142 -3 69 C-7.46034294 70.41920003 -10.32847558 72.86616727 -13.625 76.0625 C-18.36985502 80.54269003 -23.26618198 84.72577976 -28.3515625 88.8203125 C-30.97275119 90.97757399 -33.49154281 93.21311 -36 95.5 C-40.29991791 99.41891252 -44.75919547 103.09170869 -49.28125 106.75 C-51.92147729 108.93501569 -54.4672972 111.19171391 -57 113.5 C-63.39431663 119.32230109 -70.04549596 124.85690166 -77 130 C-75.31660079 134.05996279 -72.4885361 137.11274368 -69.625 140.375 C-68.53374492 141.63271772 -67.44260218 142.89053292 -66.3515625 144.1484375 C-65.7937207 144.7887793 -65.23587891 145.42912109 -64.66113281 146.08886719 C-62.09129944 149.04545972 -59.5461971 152.02305686 -57 155 C-56.00144996 156.1654913 -55.00275155 157.33085548 -54.00390625 158.49609375 C-53.26164795 159.36210205 -53.26164795 159.36210205 -52.50439453 160.24560547 C-50.99193176 162.00940902 -49.47850478 163.77238096 -47.96484375 165.53515625 C-42.6672344 171.70659807 -37.38984001 177.89401541 -32.14208984 184.10791016 C-27.29603358 189.84168764 -22.40686219 195.53823153 -17.51611328 201.23388672 C-15.00899015 204.15442275 -12.50462672 207.07732311 -10 210 C-9.00001341 211.16667816 -8.0000134 212.33334482 -7 213.5 C14 238 35 262.5 56 287 C53.26625185 290.6365208 50.4454341 293.43945421 46.875 296.25 C43.14695303 299.23639306 39.52632476 302.277863 36 305.5 C30.83146925 310.21150633 25.44961941 314.61751139 20 319 C14.65546274 314.79259833 10.55585161 310.17174609 6.3203125 304.859375 C4.12530146 302.1544119 1.8497254 299.57077971 -0.5 297 C-4.41891252 292.70008209 -8.09170869 288.24080453 -11.75 283.71875 C-13.93501569 281.07852271 -16.19171391 278.5327028 -18.5 276 C-22.41891252 271.70008209 -26.09170869 267.24080453 -29.75 262.71875 C-31.93501569 260.07852271 -34.19171391 257.5327028 -36.5 255 C-39.52282421 251.68010514 -42.42512161 248.30235888 -45.25 244.8125 C-50.46518515 238.37288007 -55.91331752 232.14544597 -61.35351562 225.89648438 C-63.93637409 222.92144811 -66.50056914 219.9305594 -69.0625 216.9375 C-69.55339111 216.36410889 -70.04428223 215.79071777 -70.55004883 215.19995117 C-71.53885203 214.04469482 -72.52754049 212.88934024 -73.51611328 211.73388672 C-76.00895524 208.82105954 -78.50462766 205.91065939 -81 203 C-82.0000134 201.83334482 -83.00001341 200.66667816 -84 199.5 C-84.495 198.9225 -84.99 198.345 -85.5 197.75 C-87 196 -88.5 194.25 -90 192.5 C-90.4957251 191.92169434 -90.9914502 191.34338867 -91.50219727 190.74755859 C-92.49503414 189.589168 -93.4877118 188.43064092 -94.48022461 187.27197266 C-97.08848348 184.22750276 -99.70004779 181.18595094 -102.31640625 178.1484375 C-102.85974609 177.51679688 -103.40308594 176.88515625 -103.96289062 176.234375 C-105.00093012 175.02776499 -106.03993595 173.82198539 -107.08007812 172.6171875 C-109.49002685 169.81384522 -111.83076975 166.99456028 -114 164 C-122.57502594 167.80890687 -129.60895783 175.49803752 -136.46875 181.75 C-139.97799486 184.86932876 -143.63162123 187.79749133 -147.28125 190.75 C-149.92147729 192.93501569 -152.4672972 195.19171391 -155 197.5 C-158.41739372 200.61458668 -161.9052235 203.5918662 -165.5 206.5 C-170.0323377 210.16812076 -174.38469669 213.98906088 -178.6953125 217.9140625 C-181.74430706 220.67366097 -184.86340547 223.34071334 -188 226 C-182.917089 233.05959862 -177.28564928 239.58330038 -171.59667969 246.15332031 C-169.05442625 249.09362689 -166.52774802 252.04722506 -164 255 C-163.0000805 256.16673566 -162.00008035 257.33340221 -161 258.5 C-95 335.5 -95 335.5 -93.50024414 337.24975586 C-92.49948394 338.41728228 -91.49867008 339.5847627 -90.49780273 340.75219727 C-88.00899324 343.65533629 -85.52109909 346.55924949 -83.03515625 349.46484375 C-77.19971822 356.28292084 -71.34278665 363.08146482 -65.45141602 369.85131836 C-64.44408205 371.01055822 -63.44072458 372.17326872 -62.44189453 373.33984375 C-61.47386343 374.45440716 -60.48462887 375.5508741 -59.47607422 376.62890625 C-58.05859375 378.1875 -58.05859375 378.1875 -56 381 C-56.31196614 384.26806474 -57.41680689 385.74386964 -59.88671875 387.8125 C-60.48887207 388.32498291 -61.09102539 388.83746582 -61.71142578 389.36547852 C-62.36353027 389.90487061 -63.01563477 390.4442627 -63.6875 391 C-64.35507324 391.56452881 -65.02264648 392.12905762 -65.71044922 392.71069336 C-67.10503317 393.88980441 -68.5025491 395.06545557 -69.90283203 396.23779297 C-73.16943361 398.98265096 -76.39408518 401.77583052 -79.625 404.5625 C-90.58814605 414 -90.58814605 414 -93 414 C-94.3327188 412.53309441 -95.58913869 410.99677499 -96.8125 409.4375 C-100.55104116 404.76432355 -104.37930425 400.19793838 -108.3125 395.6875 C-109.43237439 394.40111368 -110.55216557 393.11465491 -111.671875 391.828125 C-112.22681641 391.19068359 -112.78175781 390.55324219 -113.35351562 389.89648438 C-115.93637409 386.92144811 -118.50056914 383.9305594 -121.0625 380.9375 C-121.55339111 380.36410889 -122.04428223 379.79071777 -122.55004883 379.19995117 C-123.53885203 378.04469482 -124.52754049 376.88934024 -125.51611328 375.73388672 C-128.00895524 372.82105954 -130.50462766 369.91065939 -133 367 C-134.0000134 365.83334482 -135.00001341 364.66667816 -136 363.5 C-136.495 362.9225 -136.99 362.345 -137.5 361.75 C-167 327.33333333 -196.5 292.91666667 -226 258.5 C-226.4952417 257.9222583 -226.9904834 257.3445166 -227.50073242 256.74926758 C-228.49845195 255.58518023 -229.49601114 254.42095544 -230.4934082 253.2565918 C-233.02698743 250.29930113 -235.56350137 247.34461631 -238.10546875 244.39453125 C-240.60905138 241.48788286 -243.10260841 238.57291716 -245.58935547 235.65185547 C-246.52235554 234.55931852 -247.45883246 233.46974022 -248.39892578 232.38330078 C-249.69170052 230.88834073 -250.97120552 229.38193621 -252.25 227.875 C-253.34054687 226.60269531 -253.34054687 226.60269531 -254.453125 225.3046875 C-256 223 -256 223 -256 219 C-253.9453125 216.95703125 -253.9453125 216.95703125 -251.125 214.8125 C-247.29217379 211.81779819 -243.5834731 208.78965135 -240 205.5 C-235.70008209 201.58108748 -231.24080453 197.90829131 -226.71875 194.25 C-224.07852271 192.06498431 -221.5327028 189.80828609 -219 187.5 C-214.70008209 183.58108748 -210.24080453 179.90829131 -205.71875 176.25 C-203.07852271 174.06498431 -200.5327028 171.80828609 -198 169.5 C-193.70008209 165.58108748 -189.24080453 161.90829131 -184.71875 158.25 C-182.07852271 156.06498431 -179.5327028 153.80828609 -177 151.5 C-172.70008209 147.58108748 -168.24080453 143.90829131 -163.71875 140.25 C-161.07852271 138.06498431 -158.5327028 135.80828609 -156 133.5 C-151.70008209 129.58108748 -147.24080453 125.90829131 -142.71875 122.25 C-140.07852271 120.06498431 -137.5327028 117.80828609 -135 115.5 C-130.70008209 111.58108748 -126.24080453 107.90829131 -121.71875 104.25 C-119.07852271 102.06498431 -116.5327028 99.80828609 -114 97.5 C-109.70008209 93.58108748 -105.24080453 89.90829131 -100.71875 86.25 C-98.07852271 84.06498431 -95.5327028 81.80828609 -93 79.5 C-88.70008209 75.58108748 -84.24080453 71.90829131 -79.71875 68.25 C-77.07852271 66.06498431 -74.5327028 63.80828609 -72 61.5 C-67.70008209 57.58108748 -63.24080453 53.90829131 -58.71875 50.25 C-56.07852271 48.06498431 -53.5327028 45.80828609 -51 43.5 C-46.70008209 39.58108748 -42.24080453 35.90829131 -37.71875 32.25 C-35.07852271 30.06498431 -32.5327028 27.80828609 -30 25.5 C-25.70894841 21.58916817 -21.25989544 17.92289418 -16.74609375 14.2734375 C-13.12409222 11.27485302 -9.65257546 8.12707925 -6.19140625 4.9453125 C-4.19682072 3.17471786 -2.15871705 1.56371759 0 0 Z " fill="#737373" transform="translate(755,188)"/>
<path d="M0 0 C1.59547142 1.43033891 3.17870552 2.8746057 4.7421875 4.33984375 C6.81850555 6.27085183 8.9305631 8.11976132 11.08203125 9.96484375 C15.20714523 13.56257889 18.97279447 17.41364626 22.69140625 21.42578125 C23.34608887 22.12823975 24.00077148 22.83069824 24.67529297 23.55444336 C28.95437706 28.18032281 33.02990671 32.92096101 36.9609375 37.84765625 C39.7554817 41.29441946 42.65240567 44.64243505 45.56640625 47.98828125 C46.12013916 48.62443359 46.67387207 49.26058594 47.24438477 49.91601562 C48.36535084 51.20381634 49.48636321 52.49157676 50.60742188 53.77929688 C53.19028034 56.75433314 55.75447539 59.74522185 58.31640625 62.73828125 C59.05274292 63.59836792 59.05274292 63.59836792 59.80395508 64.47583008 C60.79275828 65.63108643 61.78144674 66.78644101 62.77001953 67.94189453 C65.26286149 70.85472171 67.75853391 73.76512186 70.25390625 76.67578125 C71.25391965 77.84243643 72.25391966 79.00910309 73.25390625 80.17578125 C73.74890625 80.75328125 74.24390625 81.33078125 74.75390625 81.92578125 C76.25390625 83.67578125 77.75390625 85.42578125 79.25390625 87.17578125 C79.74898682 87.75336182 80.24406738 88.33094238 80.75415039 88.92602539 C81.75339021 90.09183229 82.75257648 91.25768511 83.75170898 92.42358398 C86.26290086 95.35378523 88.77504018 98.28316416 91.2890625 101.2109375 C97.97840755 109.00370185 104.63055549 116.82684983 111.25390625 124.67578125 C109.70817849 128.49206957 107.3661938 130.64603868 104.31640625 133.36328125 C103.82986572 133.79825928 103.3433252 134.2332373 102.84204102 134.68139648 C98.65375153 138.39541288 94.32325759 141.92626343 89.9609375 145.43359375 C86.35261576 148.42230469 82.94223042 151.60507923 79.54296875 154.828125 C77.1877161 156.72920777 75.10723632 157.71290838 72.25390625 158.67578125 C65.81834161 151.82642396 59.54473379 144.93763626 53.65234375 137.609375 C50.81278892 134.13623872 47.88669639 130.74678152 44.94140625 127.36328125 C44.38791504 126.72737061 43.83442383 126.09145996 43.26416016 125.4362793 C42.14293196 124.14825009 41.02167546 122.86024553 39.90039062 121.57226562 C37.31753216 118.59722936 34.75333711 115.60634065 32.19140625 112.61328125 C31.45506958 111.75319458 31.45506958 111.75319458 30.70385742 110.87573242 C29.71505422 109.72047607 28.72636576 108.56512149 27.73779297 107.40966797 C25.24495101 104.49684079 22.74927859 101.58644064 20.25390625 98.67578125 C19.25389285 97.50912607 18.25389284 96.34245941 17.25390625 95.17578125 C16.75890625 94.59828125 16.26390625 94.02078125 15.75390625 93.42578125 C11.25390625 88.17578125 11.25390625 88.17578125 9.75390625 86.42553711 C8.75422791 85.25940842 7.75422804 84.09355529 6.75390625 82.92797852 C4.24627044 80.00526041 1.74447441 77.07790639 -0.74609375 74.140625 C-26.57854477 42.5801562 -26.57854477 42.5801562 -62.74609375 26.67578125 C-81.56028759 25.16767898 -96.62695489 33.31506168 -110.55859375 45.17578125 C-112.14468898 46.56666109 -113.71912628 47.96906271 -115.28662109 49.38085938 C-116.62614233 50.56935396 -118.00674705 51.71111838 -119.390625 52.84765625 C-131.01358362 62.58531607 -141.37894359 76.39075451 -143.74609375 91.67578125 C-145.88215552 116.65959235 -133.57722143 136.45257432 -117.9296875 155.04296875 C-115.40549558 158.01143176 -112.85338857 160.95504948 -110.29443359 163.89355469 C-107.76277044 166.80764189 -105.25553463 169.74256198 -102.74609375 172.67578125 C-101.74621443 173.84255135 -100.74621433 175.00921795 -99.74609375 176.17578125 C-78.74609375 200.67578125 -78.74609375 200.67578125 -57.74609375 225.17578125 C-57.00214355 226.04323975 -57.00214355 226.04323975 -56.24316406 226.92822266 C-55.2516399 228.08564763 -54.26138719 229.24416313 -53.27246094 230.40380859 C-50.65261301 233.47240275 -48.00805734 236.51446958 -45.32421875 239.52734375 C-44.76734375 240.15898438 -44.21046875 240.790625 -43.63671875 241.44140625 C-42.5665805 242.6542296 -41.48876525 243.86033474 -40.40234375 245.05859375 C-37.58044643 248.27494984 -36.74609375 249.23330011 -36.74609375 253.67578125 C-38.765625 255.9375 -38.765625 255.9375 -41.55859375 258.36328125 C-42.05415771 258.79825928 -42.54972168 259.2332373 -43.06030273 259.68139648 C-47.29686592 263.37173822 -51.65932998 266.910364 -56.03515625 270.43359375 C-59.66410911 273.43506196 -63.11387094 276.61405088 -66.5546875 279.828125 C-68.56269223 281.52114859 -70.34993591 282.63326155 -72.74609375 283.67578125 C-78.92084178 277.06245299 -84.88904381 270.37546249 -90.56640625 263.32421875 C-92.72366774 260.70303006 -94.95920375 258.18423844 -97.24609375 255.67578125 C-101.16500627 251.37586334 -104.83780244 246.91658578 -108.49609375 242.39453125 C-110.68110944 239.75430396 -112.93780766 237.20848405 -115.24609375 234.67578125 C-119.16500627 230.37586334 -122.83780244 225.91658578 -126.49609375 221.39453125 C-128.68110944 218.75430396 -130.93780766 216.20848405 -133.24609375 213.67578125 C-137.16500627 209.37586334 -140.83780244 204.91658578 -144.49609375 200.39453125 C-146.68110944 197.75430396 -148.93780766 195.20848405 -151.24609375 192.67578125 C-155.16500627 188.37586334 -158.83780244 183.91658578 -162.49609375 179.39453125 C-164.68110944 176.75430396 -166.93780766 174.20848405 -169.24609375 171.67578125 C-173.16500627 167.37586334 -176.83780244 162.91658578 -180.49609375 158.39453125 C-182.68110944 155.75430396 -184.93780766 153.20848405 -187.24609375 150.67578125 C-191.16500627 146.37586334 -194.83780244 141.91658578 -198.49609375 137.39453125 C-200.68110944 134.75430396 -202.93780766 132.20848405 -205.24609375 129.67578125 C-209.16500627 125.37586334 -212.83780244 120.91658578 -216.49609375 116.39453125 C-218.68110944 113.75430396 -220.93780766 111.20848405 -223.24609375 108.67578125 C-227.16500627 104.37586334 -230.83780244 99.91658578 -234.49609375 95.39453125 C-236.68110944 92.75430396 -238.93780766 90.20848405 -241.24609375 87.67578125 C-245.16500627 83.37586334 -248.83780244 78.91658578 -252.49609375 74.39453125 C-254.68110944 71.75430396 -256.93780766 69.20848405 -259.24609375 66.67578125 C-263.16500627 62.37586334 -266.83780244 57.91658578 -270.49609375 53.39453125 C-272.68110944 50.75430396 -274.93780766 48.20848405 -277.24609375 45.67578125 C-280.26891796 42.35588639 -283.17121536 38.97814013 -285.99609375 35.48828125 C-289.80390562 30.78411721 -293.71872329 26.18489704 -297.68359375 21.61328125 C-298.25174805 20.95755127 -298.81990234 20.30182129 -299.40527344 19.6262207 C-301.47274128 17.249007 -303.51757968 14.90429532 -305.74609375 12.67578125 C-305.63877587 9.66456777 -304.7881923 8.71574049 -302.59375 6.6328125 C-301.67464844 5.92511719 -300.75554687 5.21742188 -299.80859375 4.48828125 C-296.0044794 1.48916658 -292.31742833 -1.55097309 -288.74609375 -4.82421875 C-284.33023548 -8.85148149 -279.75342822 -12.63775453 -275.09375 -16.37890625 C-273.19430439 -17.95282291 -271.4452892 -19.54090471 -269.74609375 -21.32421875 C-265.92980543 -19.77849099 -263.77583632 -17.4365063 -261.05859375 -14.38671875 C-260.62361572 -13.90017822 -260.1886377 -13.4136377 -259.74047852 -12.91235352 C-256.01864785 -8.71525189 -252.48376921 -4.37265672 -248.9609375 -0.0078125 C-246.78976548 2.62286682 -244.54368018 5.15520549 -242.24609375 7.67578125 C-238.32718123 11.97569916 -234.65438506 16.43497672 -230.99609375 20.95703125 C-228.81107806 23.59725854 -226.55437984 26.14307845 -224.24609375 28.67578125 C-220.32718123 32.97569916 -216.65438506 37.43497672 -212.99609375 41.95703125 C-210.81107806 44.59725854 -208.55437984 47.14307845 -206.24609375 49.67578125 C-202.33648638 53.96548934 -198.6710174 58.41278257 -195.0234375 62.92578125 C-191.99384716 66.58415449 -188.81007592 70.08775124 -185.59375 73.58203125 C-183.74609375 75.67578125 -183.74609375 75.67578125 -181.74609375 78.67578125 C-181.67132813 77.70640625 -181.5965625 76.73703125 -181.51953125 75.73828125 C-179.6639733 55.60851944 -171.18054224 39.45082785 -158.74609375 23.67578125 C-158.28203125 23.06734375 -157.81796875 22.45890625 -157.33984375 21.83203125 C-153.96738347 17.54809522 -149.89441348 14.17093171 -145.74609375 10.67578125 C-144.90433594 9.93457031 -144.06257812 9.19335938 -143.1953125 8.4296875 C-100.29336141 -28.65706137 -45.86113987 -38.81561625 0 0 Z " fill="#737373" transform="translate(339.74609375,657.32421875)"/>
<path d="M0 0 C1.87309409 1.49746004 3.72858495 3.01730627 5.5625 4.5625 C6.38492188 5.24570312 7.20734375 5.92890625 8.0546875 6.6328125 C12.23417441 10.22126086 16.0218173 13.98844679 19.5703125 18.19921875 C21.1044478 20.01912436 22.65958884 21.80504939 24.2421875 23.58203125 C35.58048801 36.40135977 45.61937268 49.84691841 52.5625 65.5625 C52.93117188 66.39265625 53.29984375 67.2228125 53.6796875 68.078125 C57.08641122 77.66518821 57.22463144 90.56163685 53.5 100.0625 C50.85895605 105.49254555 47.53442838 110.0391369 43.5625 114.5625 C42.87027344 115.37460937 42.17804688 116.18671875 41.46484375 117.0234375 C29.11501131 131.18109373 13.99799465 143.44358978 -2.4375 152.5625 C-3.21867187 153.01753906 -3.99984375 153.47257813 -4.8046875 153.94140625 C-13.49678467 158.25737837 -25.1309612 157.93773233 -34.46484375 155.90234375 C-36.94423718 154.97407814 -39.13636755 153.86960585 -41.4375 152.5625 C-42.33984375 152.11132812 -43.2421875 151.66015625 -44.171875 151.1953125 C-70.69754861 137.09039082 -99.32461735 104.1303726 -108.46875 75.3125 C-111.65173427 62.81633955 -111.29825228 53.21287893 -105.4375 41.5625 C-92.42608769 20.43309783 -68.39750927 -1.84008152 -44.5625 -10.5 C-27.63140583 -14.50852064 -13.71131125 -9.99710795 0 0 Z " fill="#FBFBFB" transform="translate(496.4375,528.4375)"/>
<path d="M0 0 C3.83945182 1.51852477 5.67491055 3.77802738 8.1875 7 C11.19119376 10.77551032 14.24292994 14.44060995 17.5 18 C21.41891252 22.29991791 25.09170869 26.75919547 28.75 31.28125 C30.93501569 33.92147729 33.19171391 36.4672972 35.5 39 C39.41891252 43.29991791 43.09170869 47.75919547 46.75 52.28125 C48.93501569 54.92147729 51.19171391 57.4672972 53.5 60 C57.41891252 64.29991791 61.09170869 68.75919547 64.75 73.28125 C66.93501569 75.92147729 69.19171391 78.4672972 71.5 81 C75.41891252 85.29991791 79.09170869 89.75919547 82.75 94.28125 C84.93501569 96.92147729 87.19171391 99.4672972 89.5 102 C93.41891252 106.29991791 97.09170869 110.75919547 100.75 115.28125 C102.93501569 117.92147729 105.19171391 120.4672972 107.5 123 C111.41891252 127.29991791 115.09170869 131.75919547 118.75 136.28125 C120.93501569 138.92147729 123.19171391 141.4672972 125.5 144 C129.41891252 148.29991791 133.09170869 152.75919547 136.75 157.28125 C138.93501569 159.92147729 141.19171391 162.4672972 143.5 165 C147.34965206 169.22928903 150.98442351 173.59458426 154.58203125 178.0390625 C158.97867546 183.42299839 163.49658545 188.70533131 168 194 C156.49312417 205.63425822 144.21867004 216.34165942 131 226 C126.35924678 220.94234697 121.81749665 215.83785742 117.5 210.5 C114.5918662 206.9052235 111.61458668 203.41739372 108.5 200 C104.58108748 195.70008209 100.90829131 191.24080453 97.25 186.71875 C95.06498431 184.07852271 92.80828609 181.5327028 90.5 179 C86.58108748 174.70008209 82.90829131 170.24080453 79.25 165.71875 C77.06498431 163.07852271 74.80828609 160.5327028 72.5 158 C68.58108748 153.70008209 64.90829131 149.24080453 61.25 144.71875 C59.06498431 142.07852271 56.80828609 139.5327028 54.5 137 C50.58108748 132.70008209 46.90829131 128.24080453 43.25 123.71875 C41.06498431 121.07852271 38.80828609 118.5327028 36.5 116 C32.58108748 111.70008209 28.90829131 107.24080453 25.25 102.71875 C23.06498431 100.07852271 20.80828609 97.5327028 18.5 95 C14.58108748 90.70008209 10.90829131 86.24080453 7.25 81.71875 C5.06498431 79.07852271 2.80828609 76.5327028 0.5 74 C-3.41891252 69.70008209 -7.09170869 65.24080453 -10.75 60.71875 C-12.93501569 58.07852271 -15.19171391 55.5327028 -17.5 53 C-22.20716963 47.83118151 -26.62249338 42.44886579 -31 37 C-31.74636719 36.10925781 -32.49273438 35.21851563 -33.26171875 34.30078125 C-35 32 -35 32 -35 30 C-33.42713316 28.58561594 -31.78860004 27.24395599 -30.125 25.9375 C-26.31164438 22.88974135 -22.60191191 19.79499659 -19 16.5 C-14.58414173 12.47273726 -10.00733447 8.68646422 -5.34765625 4.9453125 C-3.44821064 3.37139584 -1.69919545 1.78331404 0 0 Z " fill="#737373" transform="translate(810,138)"/>
<path d="M0 0 C3.51884046 2.65745764 6.27738085 5.35073229 9 8.8125 C13.3191945 14.21149312 17.81301882 19.43063573 22.39453125 24.60864258 C25.87387563 28.57686904 28.99533868 32.65993364 32 37 C24.19207166 43.79278966 16.36722166 50.56143033 8.45361328 57.23095703 C4.25785005 60.77067942 0.11032535 64.3615549 -4 68 C-12.14243156 59.94543641 -19.73500501 51.4758226 -26.91796875 42.55859375 C-29.85057656 38.95473237 -32.90924631 35.46840205 -36 32 C-32.25891547 26.96888633 -27.85668456 23.33215139 -22.96875 19.4296875 C-20.00515375 17.00421793 -17.18710745 14.47382964 -14.375 11.875 C-9.77552848 7.63951543 -5.01099193 3.73659152 0 0 Z " fill="#747474" transform="translate(744,60)"/>
</svg>
