<?xml version="1.0" encoding="UTF-8"?>
<svg version="1.1" xmlns="http://www.w3.org/2000/svg" width="1080" height="1080">
<path d="M0 0 C356.4 0 712.8 0 1080 0 C1080 356.4 1080 712.8 1080 1080 C723.6 1080 367.2 1080 0 1080 C0 723.6 0 367.2 0 0 Z " fill="#FEFEFE" transform="translate(0,0)"/>
<path d="M0 0 C266.31 0 532.62 0 807 0 C807.66 1.98 808.32 3.96 809 6 C808.67 6.33 808.34 6.66 808 7 C807.89708553 9.03796608 807.86598602 11.0795605 807.8613348 13.12011814 C807.85849258 13.76960748 807.85565036 14.41909682 807.85272202 15.08826765 C807.84431804 17.29165072 807.84310238 19.4949816 807.84178162 21.69837952 C807.83722014 23.2831672 807.83222073 24.86795367 807.82681805 26.4527387 C807.81318033 30.82868105 807.80580238 35.20461559 807.79939139 39.58057368 C807.79141206 44.29158425 807.77770586 49.00257844 807.76467896 53.71357727 C807.74288105 61.88270113 807.72474874 70.05182662 807.70907402 78.22096443 C807.68640548 90.03231009 807.65825854 101.84363763 807.62875474 113.65496796 C807.58104175 132.81595047 807.53778765 151.97694038 807.49731445 171.13793945 C807.45797836 189.75610937 807.41655669 208.37427271 807.37231445 226.99243164 C807.36959018 228.13917522 807.36686591 229.2859188 807.36405908 230.46741218 C807.35037992 236.22002499 807.33665958 241.9726377 807.32291877 247.72525036 C807.20889578 295.48348654 807.10209935 343.24173695 807 391 C806.34 391 805.68 391 805 391 C805.33 391.99 805.66 392.98 806 394 C798.15002332 400.14406302 790.17543028 406.08437098 782.07861328 411.89916992 C776.52189854 415.89222397 771.0019751 419.9319003 765.5 424 C758.62311093 429.08224693 751.70966664 434.11002979 744.76953125 439.10546875 C739.31916162 443.03392016 733.90325984 447.00705268 728.5 451 C721.6229644 456.08205078 714.70966917 461.11002797 707.76953125 466.10546875 C702.31916162 470.03392016 696.90325984 474.00705268 691.5 478 C684.6229644 483.08205078 677.70966917 488.11002797 670.76953125 493.10546875 C665.31916162 497.03392016 659.90325984 501.00705268 654.5 505 C648.35983731 509.53751011 642.19645339 514.03966576 636 518.5 C626.61219227 525.25983749 617.30303505 532.12417344 608 539 C604.81331038 541.35526632 601.62585384 543.70948702 598.4375 546.0625 C597.66212891 546.63524658 596.88675781 547.20799316 596.08789062 547.7980957 C592.05895746 550.76821785 588.01505141 553.71489797 583.9453125 556.62890625 C583.12619385 557.21599365 582.3070752 557.80308105 581.46313477 558.40795898 C579.90616932 559.52157009 578.34689381 560.63196123 576.78491211 561.73852539 C576.08374268 562.23989014 575.38257324 562.74125488 574.66015625 563.2578125 C574.04793213 563.6923877 573.43570801 564.12696289 572.80493164 564.57470703 C570.89492333 565.98811516 570.89492333 565.98811516 569.24204887 568.05803119 C566.41064485 570.51047474 565.02874524 570.49908901 561.32228637 570.49679399 C560.1550961 570.50578316 558.98790582 570.51477233 557.78534615 570.5240339 C556.49954309 570.51352585 555.21374003 570.5030178 553.88897324 570.49219131 C552.50632075 570.49514907 551.12367109 570.49986257 549.74102986 570.50617731 C545.92055354 570.51849193 542.10050074 570.50572188 538.28005586 570.48906477 C534.13179349 570.47536136 529.98357532 570.48480474 525.8353045 570.49137473 C518.55810283 570.49968281 511.28103174 570.4930724 504.00384521 570.4768219 C493.18288826 570.45272486 482.362014 570.45147466 471.54103511 570.45498985 C453.34025649 570.4602511 435.13953585 570.44685845 416.93877411 570.42292023 C398.91165633 570.39927104 380.88456269 570.38386027 362.8574295 570.37950897 C361.73753626 570.37923401 360.61764303 570.37895906 359.46381363 570.37867576 C353.77669319 570.37732248 348.08957274 570.37611692 342.40245226 570.37496826 C302.09608453 570.36656139 261.78974838 570.3395974 221.48339844 570.30175781 C182.32063973 570.2650342 143.15788966 570.23669284 103.99511719 570.21972656 C102.18511058 570.21893741 102.18511058 570.21893741 100.33853818 570.21813231 C88.22090959 570.21285833 76.10328092 570.20775506 63.9856522 570.20277687 C39.29953672 570.19263138 14.61342179 570.18134637 -10.07269287 570.16937256 C-11.20777876 570.1688234 -12.34286465 570.16827424 -13.51234708 570.16770844 C-89.34157785 570.13089126 -165.17079111 570.06750877 -241 570 C-241 568.02 -241 566.04 -241 564 C-239.68 564 -238.36 564 -237 564 C-237.12676708 546.42708615 -237.25613668 528.85419222 -237.38708711 511.28130913 C-237.42082067 506.7513983 -237.45430713 502.22148572 -237.48761183 497.69157171 C-237.80816345 453.03252502 -237.80816345 453.03252502 -238.2890625 408.375 C-238.31248223 406.51481161 -238.33586905 404.65462281 -238.35922241 402.79443359 C-238.37065844 401.88449646 -238.38209446 400.97455933 -238.39387703 400.03704834 C-239.30610493 327.36115307 -239.09431607 254.6802367 -239 182 C-239.66 182 -240.32 182 -241 182 C-241 180.02 -241 178.04 -241 176 C-240.02289063 175.63261719 -239.04578125 175.26523437 -238.0390625 174.88671875 C-233.32504827 172.85815674 -229.44676671 169.89800194 -225.375 166.8125 C-224.55451172 166.19955078 -223.73402344 165.58660156 -222.88867188 164.95507812 C-215.8379524 159.6737002 -208.84120818 154.32014644 -201.84375 148.96850586 C-192.21358094 141.61183081 -182.4433456 134.45014845 -172.66601562 127.29101562 C-162.52248909 119.8592088 -152.46822068 112.32596657 -142.48486328 104.68017578 C-137.1846985 100.63197193 -131.83012984 96.69225108 -126.37451172 92.85742188 C-121.08877008 89.11688539 -115.95297479 85.18685142 -110.8125 81.25 C-100.19866866 73.12232567 -89.45165294 65.1884488 -78.66601562 57.29101562 C-69.52249354 50.59187706 -60.43603406 43.83053665 -51.4375 36.9375 C-44.29855409 31.47016312 -37.08950618 26.12490851 -29.77758789 20.89160156 C-20.7409347 14.41039123 -11.87417353 7.70104914 -3 1 C-2.01 1.495 -2.01 1.495 -1 2 C-0.67 1.34 -0.34 0.68 0 0 Z " fill="#B83D3D" transform="translate(256,233)"/>
<path d="M0 0 C1.37494133 -0.00667169 2.74986806 -0.01729488 4.12475252 -0.03146848 C7.88710947 -0.05891653 11.64725497 -0.03066975 15.40944592 0.00703472 C19.50796199 0.03808841 23.60626585 0.0165781 27.70482659 0.00183731 C34.88240436 -0.01678767 42.05930935 -0.00210038 49.23680878 0.03458118 C59.90928138 0.08897246 70.5813312 0.09159654 81.25391714 0.08370329 C99.20803032 0.07188653 117.16184508 0.10191876 135.11587143 0.15585995 C152.89077354 0.20912601 170.66555134 0.24375601 188.44053268 0.25353527 C189.54601254 0.25415393 190.65149239 0.25477258 191.79047164 0.25540999 C197.40471986 0.25845502 203.0189682 0.26116746 208.63321665 0.26375187 C248.39170253 0.28265206 288.1500261 0.34327838 327.90842056 0.42847538 C366.53145866 0.51114389 405.15445233 0.57489216 443.77756119 0.61304569 C445.56357864 0.6148213 445.56357864 0.6148213 447.38567726 0.61663277 C459.34303463 0.62849952 471.30039235 0.63998184 483.25775036 0.6511825 C507.61593919 0.67400799 531.97412512 0.69939926 556.33230972 0.7263422 C557.4522424 0.72757781 558.57217509 0.72881342 559.72604512 0.73008647 C634.50435234 0.81288267 709.28256957 0.95548835 784.06076431 1.10743046 C774.60805721 8.67929731 764.97397994 15.94346814 755.13815689 23.00757694 C749.5817522 27.00017176 744.06232068 31.03964037 738.56076431 35.10743046 C731.68387524 40.18967739 724.77043095 45.21746025 717.83029556 50.21289921 C712.37992593 54.14135062 706.96402415 58.11448314 701.56076431 62.10743046 C694.68372871 67.18948124 687.77043348 72.21745843 680.83029556 77.21289921 C675.37992593 81.14135062 669.96402415 85.11448314 664.56076431 89.10743046 C657.68372871 94.18948124 650.77043348 99.21745843 643.83029556 104.21289921 C638.37992593 108.14135062 632.96402415 112.11448314 627.56076431 116.10743046 C621.42060162 120.64494057 615.2572177 125.14709622 609.06076431 129.60743046 C598.82365225 136.9788228 588.67830964 144.47309906 578.53635025 151.97461796 C576.84359611 153.22648983 575.15048266 154.47787601 573.45700455 155.72876835 C571.88017066 156.89350545 570.30409277 158.05926714 568.7289772 159.22632694 C567.30392872 160.27873117 565.87206319 161.32199312 564.43223261 162.35408118 C562.8888561 163.49517933 561.37985075 164.68480925 559.91589863 165.92616344 C552.892671 171.55768237 547.26475116 172.09892362 538.44571114 171.96876526 C537.08163723 171.97395121 535.7175722 171.98221036 534.35353303 171.99324074 C530.61231214 172.01463674 526.87243168 171.99257598 523.13131112 171.96329381 C519.05886623 171.93918258 514.98655263 171.95586345 510.91408074 171.96733624 C503.77923756 171.98183497 496.64480345 171.97037661 489.51000786 171.94186878 C478.90094312 171.89959701 468.2921359 171.89752055 457.6830023 171.9036627 C439.83628907 171.91285744 421.98975734 171.88948006 404.14309692 171.84754086 C386.47260897 171.80612209 368.80219661 171.77917933 351.13166046 171.77157116 C350.03297486 171.77108998 348.93428926 171.7706088 347.80231016 171.77011305 C342.2226442 171.76774471 336.64297817 171.76563503 331.06331207 171.76362491 C291.54222907 171.74892191 252.02124481 171.70176011 212.50021744 171.63550663 C174.10601705 171.57121647 135.71184368 171.52163076 97.31760025 171.49195194 C95.54239364 171.49057092 95.54239364 171.49057092 93.73132426 171.48916199 C81.84642452 171.47993236 69.96152457 171.47100166 58.07662444 171.46228998 C33.86569867 171.44453647 9.65477467 171.42478771 -14.55614853 171.40383244 C-15.66932835 171.40287141 -16.78250816 171.40191038 -17.9294207 171.40092022 C-92.26606675 171.33651524 -166.60265806 171.22559879 -240.93923569 171.10743046 C-238.42261295 168.55907006 -235.95643397 166.25605844 -233.06032944 164.14649296 C-232.31412338 163.60009159 -231.56791733 163.05369022 -230.79909897 162.49073124 C-229.99971909 161.91049198 -229.2003392 161.33025272 -228.37673569 160.73243046 C-226.65405981 159.47204061 -224.93140411 158.2116232 -223.20876694 156.95118046 C-222.33043198 156.3105164 -221.45209702 155.66985233 -220.54714584 155.00977421 C-216.54703274 152.09188605 -212.55349328 149.16513973 -208.56423569 146.23243046 C-207.78757553 145.66161747 -207.01091537 145.09080448 -206.21072006 144.50269413 C-200.21561866 140.08185922 -194.28985567 135.57461166 -188.37673569 131.04493046 C-181.25011938 125.58566361 -174.04732988 120.26029194 -166.74538803 115.0385828 C-160.91618347 110.85321649 -155.19829582 106.53371834 -149.50173569 102.16993046 C-138.97205546 94.10378353 -128.30680977 86.23431525 -117.60525131 78.39844608 C-107.46172477 70.96663925 -97.40745636 63.43339702 -87.42409897 55.78760624 C-82.12393419 51.73940239 -76.76936553 47.79968154 -71.31374741 43.96485233 C-65.10204924 39.56904844 -59.08897144 34.91393813 -53.04885483 30.28687382 C-46.31520296 25.13582721 -39.52301713 20.07179225 -32.68264389 15.06348515 C-31.97196762 14.54302616 -31.26129135 14.02256718 -30.52907944 13.48633671 C-29.839036 12.99202906 -29.14899256 12.49772142 -28.43803872 11.98843476 C-25.8745628 10.10663101 -25.8745628 10.10663101 -23.35606001 7.84764225 C-15.76756361 1.46556358 -9.97725446 -0.18890465 0 0 Z " fill="#FDFDFD" transform="translate(269.93923568725586,237.89256954193115)"/>
<path d="M0 0 C200.31 0 400.62 0 607 0 C608.24567389 49.82695546 608.24567389 49.82695546 608.5625 70.3125 C608.57298748 70.97478733 608.58347496 71.63707466 608.59428024 72.3194313 C609.2553295 114.20931257 609.09384842 156.1063629 609 198 C608.34 198 607.68 198 607 198 C607 198.99 607 199.98 607 201 C406.69 201 206.38 201 0 201 C0 200.01 0 199.02 0 198 C-0.99 198 -1.98 198 -3 198 C-3 133.65 -3 69.3 -3 3 C-2.01 3 -1.02 3 0 3 C0 2.01 0 1.02 0 0 Z " fill="#B83E3E" transform="translate(118,515)"/>
<path d="M0 0 C1.05483038 39.33130535 1.12305775 78.64147831 1.07177609 117.98319059 C1.06046791 126.90582805 1.05610586 135.82846559 1.05223143 144.75110889 C1.0452409 160.65479532 1.03449321 176.55847645 1.02050781 192.4621582 C1.01926609 193.87648989 1.01926609 193.87648989 1.01799929 195.31939394 C1.01293686 201.06260231 1.0077838 206.8058106 1.00260353 212.54901886 C0.9947569 221.25444018 0.98702136 229.9598616 0.97949219 238.6652832 C0.97866406 239.62122438 0.97783593 240.57716556 0.97698271 241.56207465 C0.96331636 257.47989525 0.95355295 273.39771595 0.94658184 289.31554085 C0.94210779 299.09368247 0.934083 308.87180894 0.92143703 318.64994348 C0.91303719 325.3134078 0.90812659 331.97686862 0.90601182 338.64033788 C0.90466357 342.48299636 0.90163312 346.32563525 0.89425278 350.16828728 C0.8862987 354.3246794 0.88599663 358.48103623 0.88647461 362.63743591 C0.88108217 364.47000644 0.88108217 364.47000644 0.87558079 366.3395986 C0.87695514 367.44684036 0.87832949 368.55408213 0.87974548 369.69487667 C0.87882369 370.65390674 0.8779019 371.6129368 0.87695217 372.60102838 C0.9003946 375.146545 0.9003946 375.146545 2 378 C0.83723958 378.85677083 -0.32552083 379.71354167 -1.48828125 380.5703125 C-2.24761963 381.12984619 -3.00695801 381.68937988 -3.78930664 382.26586914 C-5.49544257 383.52297849 -7.20166228 384.77997412 -8.90795898 386.03686523 C-13.22701676 389.2186014 -17.54499788 392.40176287 -21.859375 395.58984375 C-30.28197144 401.81065367 -38.73252972 407.98854634 -47.23071289 414.10571289 C-52.68106937 418.0339888 -58.09683174 422.00712036 -63.5 426 C-70.3770356 431.08205078 -77.29033083 436.11002797 -84.23046875 441.10546875 C-89.68083838 445.03392016 -95.09674016 449.00705268 -100.5 453 C-107.3770356 458.08205078 -114.29033083 463.11002797 -121.23046875 468.10546875 C-126.68083838 472.03392016 -132.09674016 476.00705268 -137.5 480 C-144.37114062 485.07769445 -151.27790666 490.10221836 -158.21289062 495.09228516 C-163.83871478 499.14618786 -169.42432372 503.25246828 -175 507.375 C-180.37916752 511.35039472 -185.77434798 515.2851933 -191.2734375 519.09375 C-195.26702369 521.88582745 -199.22908125 524.72085407 -203.1875 527.5625 C-203.94877197 528.10527588 -204.71004395 528.64805176 -205.49438477 529.20727539 C-214.29966486 534.8418922 -214.29966486 534.8418922 -220 543 C-222.32315031 543.7013284 -224.65789079 544.36485174 -227 545 C-228.36365283 545.95824253 -229.70794169 546.94721175 -231 548 C-231.66 548 -232.32 548 -233 548 C-234.75 545.75 -234.75 545.75 -236 543 C-235.35825434 541.65449462 -234.68843495 540.32222522 -234 539 C-233.6776529 536.82296271 -233.6776529 536.82296271 -233.68115234 534.50683594 C-233.66128265 533.62622498 -233.64141296 532.74561401 -233.62094116 531.83831787 C-233.60938995 530.89651672 -233.59783875 529.95471558 -233.5859375 528.984375 C-233.56657135 528.01340881 -233.5472052 527.04244263 -233.5272522 526.04205322 C-233.46753491 522.94479114 -233.4211022 519.84749174 -233.375 516.75 C-233.33681302 514.64842141 -233.29776086 512.54685835 -233.2578125 510.4453125 C-233.16183969 505.29700132 -233.0777794 500.14861688 -233 495 C-233.66 495 -234.32 495 -235 495 C-235.25172332 453.58885412 -235.44557826 412.17779644 -235.56171862 370.76603719 C-235.57547656 365.87812185 -235.58971409 360.99020802 -235.60424805 356.10229492 C-235.60713346 355.12919068 -235.61001888 354.15608644 -235.61299173 353.15349419 C-235.66086938 337.39259746 -235.74760634 321.63214164 -235.84868076 305.87150656 C-235.95151223 289.70215283 -236.01263889 273.53303016 -236.03497344 257.36336285 C-236.05007471 247.3837992 -236.09778315 237.40548164 -236.18708114 227.42630155 C-236.2451842 220.58511488 -236.26281146 213.74457326 -236.24851515 206.9031577 C-236.24146158 202.95419106 -236.25234094 199.00740273 -236.31126022 195.05882263 C-236.36483232 191.4421897 -236.36748797 187.8291963 -236.32988784 184.21239508 C-236.32304387 182.28671001 -236.37047252 180.36106751 -236.4198944 178.43600458 C-236.35358531 174.95570427 -236.19289272 172.27298691 -235 169 C-231.67540857 165.8645567 -228.08138731 163.98836466 -224 162 C-222.83129435 161.1978391 -221.68354735 160.36292274 -220.57421875 159.48046875 C-215.26671586 155.26463087 -209.90995061 151.16284385 -204.375 147.25 C-198.78426698 143.29413643 -193.25653974 139.25973157 -187.75 135.1875 C-181.52679636 130.58703687 -175.28147057 126.020588 -169 121.5 C-162.80341871 117.03984573 -156.64016025 112.53750831 -150.5 108 C-143.6229644 102.91794922 -136.70966917 97.88997203 -129.76953125 92.89453125 C-124.31916162 88.96607984 -118.90325984 84.99294732 -113.5 81 C-106.6229644 75.91794922 -99.70966917 70.88997203 -92.76953125 65.89453125 C-87.31916038 61.96607895 -81.90332922 57.99285479 -76.5 54 C-70.33590304 49.44628045 -64.1529108 44.92095786 -57.9375 40.4375 C-56.82628784 39.63566284 -56.82628784 39.63566284 -55.69262695 38.81762695 C-52.00320386 36.15784772 -48.30907396 33.50484095 -44.609375 30.859375 C-35.35807472 24.22966871 -26.2486418 17.44368471 -17.25463867 10.4675293 C-3.6723232 0 -3.6723232 0 0 0 Z " fill="#B83E3E" transform="translate(1058,244)"/>
<path d="M0 0 C1.00874798 -0.00692307 2.01749595 -0.01384613 3.05681205 -0.02097899 C6.44073351 -0.0368748 9.82294571 -0.00993535 13.20677948 0.01675987 C15.65556982 0.01414354 18.10435852 0.00889028 20.55313826 0.00122488 C25.87896374 -0.00939983 31.20427678 -0.00138835 36.53002167 0.02305412 C44.44907179 0.05929746 52.36786853 0.06106596 60.28698648 0.05580219 C73.60872146 0.04792224 86.93027777 0.06795394 100.25196075 0.10390663 C113.44161615 0.13941175 126.63119713 0.16250289 139.82089996 0.16902351 C140.64106734 0.16943595 141.46123472 0.16984839 142.30625565 0.17027333 C146.4714905 0.17230333 150.63672542 0.17411163 154.80196041 0.17583458 C184.30246995 0.18843624 213.8028823 0.2288581 243.3033371 0.28565025 C271.96218601 0.34075852 300.62100832 0.38325937 329.2798996 0.40869713 C330.60504293 0.40988086 330.60504293 0.40988086 331.95695684 0.41108851 C340.82873244 0.41899965 349.70050825 0.42665453 358.57228423 0.43412167 C376.64503081 0.44933885 394.71777566 0.46626636 412.79051971 0.48422813 C413.62147084 0.48505187 414.45242196 0.48587561 415.30855342 0.48672432 C470.7957877 0.54192606 526.28296682 0.63712181 581.77013397 0.73828697 C578.91188108 3.63080122 576.21352576 6.31636411 572.82872772 8.57813072 C572.09082001 9.07627281 571.35291229 9.5744149 570.59264374 10.08765221 C569.4120639 10.87377892 569.4120639 10.87377892 568.20763397 11.67578697 C566.49602575 12.83104387 564.78511017 13.9873275 563.07482147 15.14453697 C562.19664764 15.73750572 561.31847382 16.33047447 560.41368866 16.94141197 C556.19104289 19.81162557 552.01091272 22.74151449 547.83263397 25.67578697 C546.587883 26.5489254 546.587883 26.5489254 545.31798553 27.43970299 C543.63610664 28.61978339 541.95446564 29.80020293 540.27306366 30.98096275 C536.1701776 33.86162739 532.06418317 36.73784759 527.95763397 39.61328697 C526.73185638 40.47168175 526.73185638 40.47168175 525.48131561 41.34741783 C518.11065378 46.50594984 510.7245245 51.64212774 503.33727264 56.77686119 C496.33365372 61.64644107 489.34250233 66.53351154 482.35729218 71.42944908 C474.76707342 76.74677474 467.1585102 82.03760327 459.5455246 87.32227135 C458.17750702 88.27263268 458.17750702 88.27263268 456.78185272 89.24219322 C455.49093719 90.13768883 455.49093719 90.13768883 454.17394257 91.05127525 C452.0033931 92.57458389 449.86387512 94.13297687 447.72716522 95.70313072 C444.77013397 97.73828697 444.77013397 97.73828697 442.77013397 97.73828697 C442.77013397 98.72828697 442.77013397 99.71828697 442.77013397 100.73828697 C247.08013397 100.73828697 51.39013397 100.73828697 -150.22986603 100.73828697 C-144.60858162 95.11700257 -144.60858162 95.11700257 -141.18299103 92.82813072 C-140.42937286 92.319515 -139.6757547 91.81089928 -138.89929962 91.28687096 C-138.10088654 90.75521324 -137.30247345 90.22355553 -136.47986603 89.67578697 C-134.76821419 88.5205947 -133.0572909 87.36432229 -131.34705353 86.20703697 C-130.05879669 85.33691978 -130.05879669 85.33691978 -128.74451447 84.44922447 C-125.00024046 81.90166406 -121.29925375 79.29497152 -117.60486603 76.67578697 C-116.91014191 76.18376793 -116.21541779 75.69174889 -115.49964142 75.18482018 C-114.10260658 74.19477376 -112.7058761 73.20429774 -111.30945587 72.21338463 C-107.84875676 69.75863656 -104.38331087 67.31062061 -100.91736603 64.86328697 C-100.22368927 64.37336266 -99.53001251 63.88343834 -98.81531525 63.37866783 C-92.44896554 58.88584389 -86.06408272 54.41967028 -79.6785965 49.95410728 C-71.51139884 44.24037803 -63.36844131 38.49267953 -55.22986603 32.73828697 C-52.45940412 30.77942749 -49.68860265 28.82105031 -46.91736603 26.86328697 C-46.23013458 26.37763268 -45.54290314 25.89197838 -44.8348465 25.39160728 C-40.89592873 22.61087464 -36.94941537 19.84139602 -32.99549103 17.08203697 C-31.66578278 16.15367027 -31.66578278 16.15367027 -30.30921173 15.20654869 C-28.60029307 14.0142064 -26.89054942 12.82304529 -25.1798172 11.6333065 C-24.39066925 11.08271568 -23.6015213 10.53212486 -22.78845978 9.96484947 C-22.10066437 9.48612389 -21.41286896 9.0073983 -20.70423126 8.51416588 C-18.31169377 6.86393422 -18.31169377 6.86393422 -16.59787253 5.2783167 C-11.12710207 0.61629621 -7.06033107 -0.11982207 0 0 Z " fill="#FEFEFE" transform="translate(304.22986602783203,277.2617130279541)"/>
<path d="M0 0 C57.09 0 114.18 0 173 0 C173 39.93 173 79.86 173 121 C115.91 121 58.82 121 0 121 C0 81.07 0 41.14 0 0 Z " fill="#FEFEFE" transform="translate(448,550)"/>
<path d="M0 0 C266.31 0 532.62 0 807 0 C807.66 1.98 808.32 3.96 809 6 C808.67 6.33 808.34 6.66 808 7 C807.89708553 9.03796608 807.86598602 11.0795605 807.8613348 13.12011814 C807.85849258 13.76960748 807.85565036 14.41909682 807.85272202 15.08826765 C807.84431804 17.29165072 807.84310238 19.4949816 807.84178162 21.69837952 C807.83722014 23.2831672 807.83222073 24.86795367 807.82681805 26.4527387 C807.81318033 30.82868105 807.80580238 35.20461559 807.79939139 39.58057368 C807.79141206 44.29158425 807.77770586 49.00257844 807.76467896 53.71357727 C807.74288105 61.88270113 807.72474874 70.05182662 807.70907402 78.22096443 C807.68640548 90.03231009 807.65825854 101.84363763 807.62875474 113.65496796 C807.58104175 132.81595047 807.53778765 151.97694038 807.49731445 171.13793945 C807.45797836 189.75610937 807.41655669 208.37427271 807.37231445 226.99243164 C807.36959018 228.13917522 807.36686591 229.2859188 807.36405908 230.46741218 C807.35037992 236.22002499 807.33665958 241.9726377 807.32291877 247.72525036 C807.20889578 295.48348654 807.10209935 343.24173695 807 391 C806.34 391 805.68 391 805 391 C805.33 391.99 805.66 392.98 806 394 C798.15002332 400.14406302 790.17543028 406.08437098 782.07861328 411.89916992 C776.52189854 415.89222397 771.0019751 419.9319003 765.5 424 C758.62311093 429.08224693 751.70966664 434.11002979 744.76953125 439.10546875 C739.31916162 443.03392016 733.90325984 447.00705268 728.5 451 C721.6229644 456.08205078 714.70966917 461.11002797 707.76953125 466.10546875 C702.31916162 470.03392016 696.90325984 474.00705268 691.5 478 C684.6229644 483.08205078 677.70966917 488.11002797 670.76953125 493.10546875 C665.31916162 497.03392016 659.90325984 501.00705268 654.5 505 C648.35983731 509.53751011 642.19645339 514.03966576 636 518.5 C626.61219227 525.25983749 617.30303505 532.12417344 608 539 C604.81331038 541.35526632 601.62585384 543.70948702 598.4375 546.0625 C597.66212891 546.63524658 596.88675781 547.20799316 596.08789062 547.7980957 C592.05895746 550.76821785 588.01505141 553.71489797 583.9453125 556.62890625 C583.12619385 557.21599365 582.3070752 557.80308105 581.46313477 558.40795898 C579.90616932 559.52157009 578.34689381 560.63196123 576.78491211 561.73852539 C576.08374268 562.23989014 575.38257324 562.74125488 574.66015625 563.2578125 C574.04793213 563.6923877 573.43570801 564.12696289 572.80493164 564.57470703 C570.89492333 565.98811516 570.89492333 565.98811516 569.24204887 568.05803119 C566.41064485 570.51047474 565.02874524 570.49908901 561.32228637 570.49679399 C560.1550961 570.50578316 558.98790582 570.51477233 557.78534615 570.5240339 C556.49954309 570.51352585 555.21374003 570.5030178 553.88897324 570.49219131 C552.50632075 570.49514907 551.12367109 570.49986257 549.74102986 570.50617731 C545.92055354 570.51849193 542.10050074 570.50572188 538.28005586 570.48906477 C534.13179349 570.47536136 529.98357532 570.48480474 525.8353045 570.49137473 C518.55810283 570.49968281 511.28103174 570.4930724 504.00384521 570.4768219 C493.18288826 570.45272486 482.362014 570.45147466 471.54103511 570.45498985 C453.34025649 570.4602511 435.13953585 570.44685845 416.93877411 570.42292023 C398.91165633 570.39927104 380.88456269 570.38386027 362.8574295 570.37950897 C361.73753626 570.37923401 360.61764303 570.37895906 359.46381363 570.37867576 C353.77669319 570.37732248 348.08957274 570.37611692 342.40245226 570.37496826 C302.09608453 570.36656139 261.78974838 570.3395974 221.48339844 570.30175781 C182.32063973 570.2650342 143.15788966 570.23669284 103.99511719 570.21972656 C102.18511058 570.21893741 102.18511058 570.21893741 100.33853818 570.21813231 C88.22090959 570.21285833 76.10328092 570.20775506 63.9856522 570.20277687 C39.29953672 570.19263138 14.61342179 570.18134637 -10.07269287 570.16937256 C-11.20777876 570.1688234 -12.34286465 570.16827424 -13.51234708 570.16770844 C-89.34157785 570.13089126 -165.17079111 570.06750877 -241 570 C-241 568.02 -241 566.04 -241 564 C-239.68 564 -238.36 564 -237 564 C-237.12676708 546.42708615 -237.25613668 528.85419222 -237.38708711 511.28130913 C-237.42082067 506.7513983 -237.45430713 502.22148572 -237.48761183 497.69157171 C-237.80816345 453.03252502 -237.80816345 453.03252502 -238.2890625 408.375 C-238.31248223 406.51481161 -238.33586905 404.65462281 -238.35922241 402.79443359 C-238.37065844 401.88449646 -238.38209446 400.97455933 -238.39387703 400.03704834 C-239.30610493 327.36115307 -239.09431607 254.6802367 -239 182 C-239.66 182 -240.32 182 -241 182 C-241 180.02 -241 178.04 -241 176 C-240.02289063 175.63261719 -239.04578125 175.26523437 -238.0390625 174.88671875 C-233.32504827 172.85815674 -229.44676671 169.89800194 -225.375 166.8125 C-224.55451172 166.19955078 -223.73402344 165.58660156 -222.88867188 164.95507812 C-215.8379524 159.6737002 -208.84120818 154.32014644 -201.84375 148.96850586 C-192.21358094 141.61183081 -182.4433456 134.45014845 -172.66601562 127.29101562 C-162.52248909 119.8592088 -152.46822068 112.32596657 -142.48486328 104.68017578 C-137.1846985 100.63197193 -131.83012984 96.69225108 -126.37451172 92.85742188 C-121.08877008 89.11688539 -115.95297479 85.18685142 -110.8125 81.25 C-100.19866866 73.12232567 -89.45165294 65.1884488 -78.66601562 57.29101562 C-69.52249354 50.59187706 -60.43603406 43.83053665 -51.4375 36.9375 C-44.29855409 31.47016312 -37.08950618 26.12490851 -29.77758789 20.89160156 C-20.7409347 14.41039123 -11.87417353 7.70104914 -3 1 C-2.01 1.495 -2.01 1.495 -1 2 C-0.67 1.34 -0.34 0.68 0 0 Z M-13 16 C-14.53272019 17.19796412 -16.09055682 18.36565219 -17.6875 19.4765625 C-18.39495361 19.99379883 -19.10240723 20.51103516 -19.83129883 21.04394531 C-20.90480591 21.82656738 -20.90480591 21.82656738 -22 22.625 C-29.00079755 27.75258608 -35.92445132 32.97206379 -42.8125 38.25 C-49.00873662 42.99574377 -55.24064237 47.6545819 -61.62548828 52.14257812 C-66.91122992 55.88311461 -72.04702521 59.81314858 -77.1875 63.75 C-87.80133134 71.87767433 -98.54834706 79.8115512 -109.33398438 87.70898438 C-119.47751091 95.1407912 -129.53177932 102.67403343 -139.51513672 110.31982422 C-144.8153015 114.36802807 -150.16987016 118.30774892 -155.62548828 122.14257812 C-160.91122992 125.88311461 -166.04702521 129.81314858 -171.1875 133.75 C-180.24923005 140.68913332 -189.39723522 147.49827326 -198.60449219 154.24267578 C-201.12759902 156.09360556 -203.64637469 157.95030037 -206.1640625 159.80859375 C-207.01532715 160.43685059 -207.8665918 161.06510742 -208.74365234 161.71240234 C-210.3613301 162.90651515 -211.97885436 164.10083593 -213.59619141 165.29541016 C-214.70099854 166.11017822 -214.70099854 166.11017822 -215.828125 166.94140625 C-216.52744141 167.45719238 -217.22675781 167.97297852 -217.94726562 168.50439453 C-219.9641972 169.97391437 -222.00287221 171.40832425 -224.046875 172.83984375 C-225.02140625 173.55269531 -225.9959375 174.26554688 -227 175 C-227 175.33 -227 175.66 -227 176 C-151.65197944 176.22284629 -76.30391914 176.42953508 -0.95565796 176.55046082 C0.15977888 176.55225556 1.27521573 176.5540503 2.42445369 176.55589943 C26.66675319 176.59480855 50.9090562 176.63082073 75.15136441 176.66384928 C87.04003798 176.68006445 98.92871061 176.69691968 110.81738281 176.71411133 C112.00043941 176.7158112 113.183496 176.71751106 114.40240279 176.71926244 C152.73865508 176.77464559 191.07465803 176.87228166 229.41075931 176.99186387 C268.81090887 177.11454175 308.21092047 177.19452326 347.61125779 177.22089487 C353.17813161 177.2246408 358.74500497 177.22887408 364.3118782 177.23340416 C365.95531528 177.23471891 365.95531528 177.23471891 367.6319531 177.23606022 C385.2582347 177.25141391 402.88408935 177.31168475 420.51019694 177.38881644 C438.23675882 177.46542685 455.96289807 177.49456494 473.68961965 177.47551791 C484.21770507 177.46564102 494.74424195 177.49188907 505.2720473 177.57036806 C512.31265468 177.61925874 519.3522527 177.62053119 526.39293083 177.58381358 C530.40034176 177.56425654 534.40483368 177.56470827 538.41192655 177.62348137 C555.89231563 177.86525115 569.2239595 177.20100311 582.40502997 164.50713571 C584.54226729 162.48759514 586.87494648 160.80845919 589.28125 159.125 C590.68802279 158.08403947 592.09428848 157.04239322 593.5 156 C600.37620991 150.91684152 607.29034445 145.88996222 614.23046875 140.89453125 C619.68083838 136.96607984 625.09674016 132.99294732 630.5 129 C637.3770356 123.91794922 644.29033083 118.88997203 651.23046875 113.89453125 C656.68083838 109.96607984 662.09674016 105.99294732 667.5 102 C673.64016269 97.46248989 679.80354661 92.96033424 686 88.5 C695.38780773 81.74016251 704.69696495 74.87582656 714 68 C724.0401124 60.57940327 734.09797508 53.18803961 744.23071289 45.89428711 C749.68107106 41.96600998 755.09673879 37.99275584 760.5 34 C766.83179847 29.32291848 773.18177615 24.6726565 779.5625 20.0625 C780.30870605 19.52334961 781.05491211 18.98419922 781.82373047 18.42871094 C786.65557645 14.94682777 791.52051139 11.52140303 796.4453125 8.171875 C796.95835937 7.78515625 797.47140625 7.3984375 798 7 C798 6.67 798 6.34 798 6 C722.10468437 5.82861465 646.20934541 5.6696185 570.31388855 5.5765686 C568.62912482 5.57449775 568.62912482 5.57449775 566.91032547 5.57238506 C542.50101857 5.54245637 518.09170961 5.51475449 493.68239759 5.48934671 C481.71217411 5.47687328 469.74195119 5.46390775 457.77172852 5.45068359 C456.58054391 5.449376 455.38935931 5.44806841 454.16207821 5.4467212 C415.54842312 5.40410343 376.9349143 5.32898722 338.32134784 5.23702779 C298.64273723 5.1427035 258.96420759 5.08114597 219.28548676 5.0608501 C213.68187284 5.05796853 208.07825919 5.05471216 202.47464561 5.05122757 C201.37176803 5.05055334 200.26889045 5.04987911 199.13259233 5.04918445 C181.3752295 5.03736466 163.61811692 4.99097726 145.86085617 4.93167966 C128.0111941 4.87281059 110.16178026 4.85031925 92.31202451 4.86498623 C81.70537746 4.87259536 71.09963854 4.85228751 60.49315538 4.79202457 C53.40652333 4.75450951 46.32048552 4.75337345 39.23381235 4.78168186 C35.19638517 4.79677224 31.1606743 4.79617499 27.12343166 4.75116818 C4.76628642 3.98883185 4.76628642 3.98883185 -13 16 Z M778.51586914 26.46142578 C773.03603098 30.51028437 767.53043161 34.52057866 762 38.5 C755.8033801 42.96009999 749.64015953 47.46249222 743.5 52 C736.6229644 57.08205078 729.70966917 62.11002797 722.76953125 67.10546875 C717.31916162 71.03392016 711.90325984 75.00705268 706.5 79 C699.6229644 84.08205078 692.70966917 89.11002797 685.76953125 94.10546875 C680.31916162 98.03392016 674.90325984 102.00705268 669.5 106 C662.6229644 111.08205078 655.70966917 116.11002797 648.76953125 121.10546875 C643.31916162 125.03392016 637.90325984 129.00705268 632.5 133 C625.62379195 138.08143923 618.7119472 143.10969023 611.77172852 148.10327148 C606.29622042 152.04867362 600.86192467 156.04724592 595.4375 160.0625 C589.15002103 164.71174247 582.82379879 169.29982506 576.4375 173.8125 C575.7168335 174.32240479 574.99616699 174.83230957 574.25366211 175.35766602 C569.25786158 178.87106921 569.25786158 178.87106921 567 180 C567 287.58 567 395.16 567 506 C567.66 506 568.32 506 569 506 C568.90643871 512.19330109 568.80033805 518.38621249 568.68261719 524.57910156 C568.64433694 526.68581254 568.6094824 528.79258867 568.578125 530.89941406 C568.53245402 533.92797121 568.47446255 536.95608022 568.4140625 539.984375 C568.40251129 540.92617615 568.39096008 541.86797729 568.37905884 542.83831787 C568.3492543 544.15923431 568.3492543 544.15923431 568.31884766 545.50683594 C568.30552399 546.27960876 568.29220032 547.05238159 568.2784729 547.84857178 C568 550 568 550 566.89413452 552.10894775 C566.59907013 552.732995 566.30400574 553.35704224 566 554 C567.28184562 556.74832154 567.28184562 556.74832154 569 559 C571.9719385 557.87548273 574.33440687 556.77706209 577 555 C578.2684375 554.814375 578.2684375 554.814375 579.5625 554.625 C580.366875 554.41875 581.17125 554.2125 582 554 C582.43892578 553.1028125 582.43892578 553.1028125 582.88671875 552.1875 C586.97840741 544.14769071 598.6828966 538.5945705 606.01806641 533.40673828 C616.73103376 525.80288045 627.32811479 518.03867555 637.89331055 510.23144531 C643.97478595 505.74230797 650.09562476 501.31032964 656.23046875 496.89453125 C661.68083838 492.96607984 667.09674016 488.99294732 672.5 485 C679.3770356 479.91794922 686.29033083 474.88997203 693.23046875 469.89453125 C698.68083838 465.96607984 704.09674016 461.99294732 709.5 458 C716.3770356 452.91794922 723.29033083 447.88997203 730.23046875 442.89453125 C735.68083838 438.96607984 741.09674016 434.99294732 746.5 431 C752.64016126 426.46249095 758.8034695 421.96022587 765 417.5 C772.15150559 412.3521456 779.25665959 407.14413522 786.3449707 401.90966797 C792.21008142 397.5786797 798.09324663 393.27410019 804 389 C803.67 388.01 803.34 387.02 803 386 C802.90936321 384.22735163 802.87804578 382.4514292 802.87974548 380.67646599 C802.87837113 379.56512413 802.87699678 378.45378227 802.87558079 377.30876338 C802.88097323 375.46933325 802.88097323 375.46933325 802.88647461 373.59274292 C802.88632575 372.2935143 802.88617689 370.99428568 802.88602352 369.6556865 C802.88572717 366.04013818 802.8916749 362.42462251 802.89859343 358.80908179 C802.90495645 354.91041226 802.90553601 351.01174155 802.9067688 347.11306763 C802.90966137 340.34425203 802.91611271 333.57544729 802.92483521 326.80663681 C802.93741725 316.96667683 802.94347397 307.12672085 802.94776857 297.28675415 C802.95484819 281.25220143 802.96564861 265.21765371 802.97949219 249.18310547 C802.98073391 247.74251942 802.98073391 247.74251942 802.98200071 246.27283062 C802.989559 237.5429353 802.99735798 228.8130402 803.00520325 220.08314514 C803.01037059 214.32675177 803.01547295 208.57035834 803.02050781 202.81396484 C803.02133594 201.86869721 803.02216407 200.92342958 803.02301729 199.94951747 C803.03683742 184.03070271 803.04652805 168.11188786 803.05341816 152.19306862 C803.05744825 143.28302246 803.06359751 134.37298768 803.07516479 125.46294785 C803.12414519 87.29520311 803.05247276 49.15715598 802 11 C794.94961829 11 784.10170571 22.33202404 778.51586914 26.46142578 Z M-234 182 C-233.67 309.71 -233.34 437.42 -233 569 C30.01 569 293.02 569 564 569 C564 440.96 564 312.92 564 181 C425.62054632 180.97130562 425.62054632 180.97130562 287.24109209 180.95183504 C267.22086617 180.94979372 247.20064025 180.94770574 227.18041436 180.94547401 C224.75865322 180.94520417 222.33689208 180.9449358 219.91513094 180.94466891 C181.27110736 180.94039804 142.62708524 180.93289127 103.98306254 180.92370278 C64.28378945 180.91428047 24.58451717 180.90811695 -15.11475702 180.90608501 C-20.71519245 180.90579683 -26.31562788 180.9054712 -31.91606331 180.90512276 C-33.01836682 180.90505533 -34.12067033 180.90498791 -35.25637698 180.90491844 C-53.03830945 180.90373429 -70.82023944 180.89908969 -88.60217089 180.89316797 C-106.45605519 180.88729552 -124.309937 180.8850283 -142.16382223 180.88649862 C-152.78596944 180.88726226 -163.40810762 180.88520431 -174.03025322 180.87920246 C-181.11195395 180.87547255 -188.19364873 180.87532214 -195.27534986 180.87816819 C-199.31928001 180.87968837 -203.36319299 180.87957103 -207.40712135 180.87511682 C-211.07767752 180.87110426 -214.74820292 180.87159665 -218.41875855 180.87586002 C-220.37806824 180.87692402 -222.33737865 180.8730252 -224.29668447 180.86899152 C-225.44136528 180.87123882 -226.58604608 180.87348611 -227.76541418 180.8758015 C-228.75979066 180.87564552 -229.75416714 180.87548954 -230.77867624 180.87532884 C-232.9731344 180.75101043 -232.9731344 180.75101043 -234 182 Z " fill="#060404" transform="translate(256,233)"/>
<path d="M0 0 C53.46 0 106.92 0 162 0 C162 32.67 162 65.34 162 99 C108.54 99 55.08 99 0 99 C0 66.33 0 33.66 0 0 Z " fill="#FEFEFE" transform="translate(175,566)"/>
<path d="M0 0 C200.31 0 400.62 0 607 0 C608.24567389 49.82695546 608.24567389 49.82695546 608.5625 70.3125 C608.57298748 70.97478733 608.58347496 71.63707466 608.59428024 72.3194313 C609.2553295 114.20931257 609.09384842 156.1063629 609 198 C608.34 198 607.68 198 607 198 C607 198.99 607 199.98 607 201 C406.69 201 206.38 201 0 201 C0 200.01 0 199.02 0 198 C-0.99 198 -1.98 198 -3 198 C-3 133.65 -3 69.3 -3 3 C-2.01 3 -1.02 3 0 3 C0 2.01 0 1.02 0 0 Z M3 6 C3 68.37 3 130.74 3 195 C201 195 399 195 603 195 C603 131.99647276 601.95448934 68.99629667 601 6 C403.66 6 206.32 6 3 6 Z " fill="#050101" transform="translate(118,515)"/>
<path d="M0 0 C1.31738931 -0.00337094 1.31738931 -0.00337094 2.66139254 -0.00680998 C4.11273402 -0.00286946 4.11273402 -0.00286946 5.59339553 0.00115067 C6.62338826 -0.00000318 7.653381 -0.00115702 8.71458563 -0.00234583 C12.20030145 -0.00501362 15.685972 -0.00048897 19.17168552 0.00394398 C21.68215341 0.00350831 24.19262127 0.00263349 26.70308888 0.00135481 C32.17898371 -0.00042095 37.65486426 0.00093043 43.13075763 0.00499302 C51.27326435 0.01101724 59.4157642 0.01132983 67.55827274 0.01045103 C81.25391789 0.00913572 94.94955823 0.0124839 108.64520198 0.01846844 C122.21019576 0.02438073 135.77518754 0.02823343 149.3401826 0.02932125 C150.18287523 0.02938999 151.02556785 0.02945873 151.89379661 0.02952956 C156.17321704 0.02986788 160.45263747 0.03016927 164.73205791 0.03045643 C195.06165133 0.03255815 225.39124213 0.03929916 255.72083408 0.04875904 C285.18990946 0.05793994 314.65898412 0.06502528 344.12806064 0.06926686 C345.49004776 0.06946414 345.49004776 0.06946414 346.87954978 0.06966542 C355.99777807 0.07098391 365.11600636 0.07225973 374.23423466 0.07350428 C392.80995277 0.07604065 411.38567084 0.0788619 429.96138889 0.08185536 C430.81551428 0.08199265 431.66963968 0.08212994 432.54964766 0.08227139 C489.60939644 0.09147569 546.66914374 0.10734207 603.72889072 0.1241985 C603.72889072 2.1041985 603.72889072 4.0841985 603.72889072 6.1241985 C602.4024454 6.51865162 602.4024454 6.51865162 601.04920322 6.9210735 C597.80178897 8.0977836 595.44103597 9.42630773 592.60389072 11.3741985 C591.5558829 12.09091725 590.50787509 12.807636 589.42810947 13.5460735 C588.19420983 14.40426106 586.96120349 15.26373384 585.72889072 16.1241985 C585.02457919 16.61468678 584.32026767 17.10517506 583.59461337 17.61052662 C579.45651107 20.49489983 575.32540265 23.38911302 571.19764072 26.288261 C565.61492956 30.20782297 560.01731245 34.1057182 554.41639072 37.9991985 C553.45692538 38.66628834 552.49746005 39.33337818 551.50892001 40.02068287 C549.55674938 41.37786436 547.60451941 42.7349605 545.65223056 44.09197193 C540.84358911 47.43480904 536.03628506 50.77956827 531.22889072 54.1241985 C525.44441223 58.14861176 519.65963274 62.17258863 513.87342197 66.194511 C499.08101978 76.47553209 499.08101978 76.47553209 484.32850009 86.81365162 C479.71507062 90.05602173 475.07475021 93.25290936 470.40467197 96.413261 C468.8162247 97.4960735 468.8162247 97.4960735 467.19568759 98.600761 C465.12901123 100.00840434 463.05627364 101.40719894 460.97693759 102.7960735 C460.04558994 103.43287037 459.11424228 104.06966725 458.15467197 104.725761 C457.32362949 105.28601979 456.49258701 105.84627857 455.63636142 106.4235149 C453.31927302 108.16830673 453.31927302 108.16830673 452.72889072 112.1241985 C252.41889072 112.1241985 52.10889072 112.1241985 -154.27110928 112.1241985 C-154.76610928 109.1541985 -154.76610928 109.1541985 -155.27110928 106.1241985 C-149.24424783 101.34573263 -143.09409047 96.81414701 -136.77110928 92.4366985 C-135.00006638 91.2039266 -133.22923641 89.97084875 -131.45860928 88.73747975 C-130.58333585 88.12855885 -129.70806241 87.51963795 -128.80626553 86.8922649 C-125.11649962 84.31895165 -121.44306457 81.7228332 -117.77110928 79.1241985 C-111.61700576 74.77280482 -105.44791317 70.44330371 -99.27110928 66.1241985 C-90.25238783 59.81721928 -81.25707001 53.47773627 -72.27110928 47.1241985 C-63.28514755 40.77066001 -54.28971207 34.43134851 -45.27110928 28.1241985 C-38.91051876 23.67496665 -32.55304488 19.22144701 -26.20860928 14.7491985 C-25.51364346 14.25959645 -24.81867764 13.76999439 -24.10265225 13.26555592 C-19.14125245 9.76132127 -14.23757863 6.18736366 -9.37267178 2.54997975 C-6.23192347 0.41917466 -3.69778901 -0.00076071 0 0 Z M-19.27110928 17.1241985 C-20.96188141 18.36874634 -22.66945532 19.59158488 -24.40782803 20.76872975 C-25.15894864 21.29289479 -25.91006924 21.81705982 -26.68395108 22.35710865 C-27.43458829 22.8783733 -28.18522549 23.39963795 -28.95860928 23.9366985 C-30.66696763 25.12806888 -32.37530019 26.31947623 -34.08360928 27.51091725 C-34.93954678 28.10694752 -35.79548428 28.70297779 -36.67735928 29.31706959 C-40.94202819 32.28836847 -45.2004556 35.26857331 -49.45860928 38.2491985 C-50.28876553 38.83016285 -51.11892178 39.41112721 -51.97423428 40.00969654 C-60.08933941 45.69170559 -68.18223031 51.4049438 -76.27110928 57.1241985 C-85.25707068 63.47773675 -94.25246691 69.81710544 -103.27110928 76.1241985 C-111.61712425 81.96152452 -119.95089019 87.81564138 -128.26183194 93.70281178 C-130.31859282 95.15778892 -132.3787557 96.60786402 -134.43907803 98.05779225 C-135.73739528 98.97556274 -137.03557877 99.89352251 -138.33360928 100.8116985 C-138.93608487 101.23418873 -139.53856045 101.65667897 -140.15929288 102.09197193 C-141.54803945 103.07764027 -142.91260608 104.09724758 -144.27110928 105.1241985 C-144.27110928 105.4541985 -144.27110928 105.7841985 -144.27110928 106.1241985 C51.41889072 106.1241985 247.10889072 106.1241985 448.72889072 106.1241985 C448.72889072 105.1341985 448.72889072 104.1441985 448.72889072 103.1241985 C449.38631259 102.91408131 450.04373447 102.70396412 450.72107822 102.48747975 C454.84513634 100.61826379 458.23176501 98.00689609 461.85389072 95.3116985 C468.19865649 90.65848125 474.59451938 86.10685156 481.10389072 81.6866985 C490.20266834 75.50001553 499.22168844 69.20474785 508.22596103 62.88152272 C512.32884709 60.00085808 516.43484152 57.12463787 520.54139072 54.2491985 C521.7671683 53.39080372 521.7671683 53.39080372 523.01770908 52.51506764 C529.41294606 48.03920978 535.81949247 43.57974679 542.22889072 39.1241985 C552.74446067 31.81300437 563.25122632 24.48964043 573.72889072 17.1241985 C574.46156162 16.61002369 575.19423251 16.09584889 575.94910556 15.56609303 C577.96175191 14.15176368 579.97098258 12.73274359 581.97889072 11.3116985 C582.57000644 10.8967815 583.16112216 10.48186451 583.77015048 10.05437428 C585.10813584 9.10301788 586.4217641 8.11752816 587.72889072 7.1241985 C587.72889072 6.7941985 587.72889072 6.4641985 587.72889072 6.1241985 C531.50124024 5.93585329 475.27355879 5.76073212 419.04567844 5.65842396 C418.21318467 5.65690533 417.3806909 5.6553867 416.52297005 5.65382206 C398.42963948 5.62089831 380.33630557 5.59042656 362.24296665 5.56247987 C353.36970297 5.54875944 344.49644019 5.53449732 335.62317783 5.51995045 C334.74019234 5.5185121 333.85720685 5.51707375 332.94746422 5.51559181 C304.33911164 5.46873609 275.73099841 5.38612621 247.12279077 5.28492907 C217.71849116 5.18110506 188.31432395 5.11344352 158.90984414 5.09113361 C154.75449489 5.08796401 150.59914609 5.08438201 146.44379741 5.08054882 C145.2170768 5.07943634 145.2170768 5.07943634 143.96557396 5.07830139 C130.81306488 5.06531398 117.66096579 5.01432707 104.50862376 4.94904612 C91.2786301 4.88419373 78.04904194 4.85957357 64.81889497 4.87568334 C56.96301029 4.88403555 49.10861238 4.86187906 41.25299684 4.79542552 C35.37853427 4.74913728 29.5050908 4.76071985 23.63051177 4.79431065 C21.26009897 4.79894796 18.88955963 4.78508222 16.51939481 4.75048349 C0.9939901 4.53709173 -7.81068463 6.49978051 -19.27110928 17.1241985 Z " fill="#050505" transform="translate(298.27110928297043,271.8758015036583)"/>
<path d="M0 0 C59.4 0 118.8 0 180 0 C180 42.57 180 85.14 180 129 C120.6 129 61.2 129 0 129 C0 86.43 0 43.86 0 0 Z M4 4 C4 43.93 4 83.86 4 125 C61.09 125 118.18 125 177 125 C177 85.07 177 45.14 177 4 C119.91 4 62.82 4 4 4 Z " fill="#000000" transform="translate(444,546)"/>
<path d="M0 0 C55.77 0 111.54 0 169 0 C169 35.31 169 70.62 169 107 C113.23 107 57.46 107 0 107 C0 71.69 0 36.38 0 0 Z M4 4 C4 36.67 4 69.34 4 103 C57.46 103 110.92 103 166 103 C166 70.33 166 37.66 166 4 C112.54 4 59.08 4 4 4 Z " fill="#070707" transform="translate(171,562)"/>
</svg>
