<?xml version="1.0" encoding="UTF-8"?>
<svg version="1.1" xmlns="http://www.w3.org/2000/svg" width="1080" height="1080">
<path d="M0 0 C356.4 0 712.8 0 1080 0 C1080 356.4 1080 712.8 1080 1080 C723.6 1080 367.2 1080 0 1080 C0 723.6 0 367.2 0 0 Z " fill="#FEFEFE" transform="translate(0,0)"/>
<path d="M0 0 C29.06473417 -1.15262075 54.2778675 15.01383935 74.95703125 33.85546875 C98.23688038 55.43593352 121.30831494 83.11129235 129.64453125 114.23046875 C130.20279753 116.02345912 130.76498874 117.81523455 131.33203125 119.60546875 C138.0477493 140.84064425 133.0410622 164.00989759 123.09765625 183.21875 C117.04284367 193.68446099 108.91790119 202.49966334 100.64453125 211.23046875 C99.31035156 212.64585937 99.31035156 212.64585937 97.94921875 214.08984375 C78.27141976 234.39870918 51.00399729 250.44107742 22.109375 251.46875 C18.61473517 251.51404643 15.13490344 251.41829147 11.64453125 251.23046875 C13.80883447 255.8400184 16.0433177 260.35709555 18.79296875 264.6484375 C19.16035156 265.22247314 19.52773438 265.79650879 19.90625 266.38793945 C20.98250694 268.04834901 22.07496881 269.69821998 23.16796875 271.34765625 C24.64453125 274.23046875 24.64453125 274.23046875 24.64453125 276.3515625 C23.26011993 278.95274158 21.49665365 280.48943531 19.26953125 282.41796875 C18.36847656 283.20171875 17.46742188 283.98546875 16.5390625 284.79296875 C12.79047423 287.94967466 9.0122671 291.0660078 5.19921875 294.14453125 C2.94817432 295.98254001 0.75916559 297.86877948 -1.41796875 299.79296875 C-4.35546875 302.23046875 -4.35546875 302.23046875 -6.35546875 302.23046875 C-7.76985281 300.65760191 -9.11151276 299.01906879 -10.41796875 297.35546875 C-13.4657274 293.54211313 -16.56047216 289.83238066 -19.85546875 286.23046875 C-23.77438127 281.93055084 -27.44717744 277.47127328 -31.10546875 272.94921875 C-33.29048444 270.30899146 -35.54718266 267.76317155 -37.85546875 265.23046875 C-41.77438127 260.93055084 -45.44717744 256.47127328 -49.10546875 251.94921875 C-51.29048444 249.30899146 -53.54718266 246.76317155 -55.85546875 244.23046875 C-59.77438127 239.93055084 -63.44717744 235.47127328 -67.10546875 230.94921875 C-69.29048444 228.30899146 -71.54718266 225.76317155 -73.85546875 223.23046875 C-77.77438127 218.93055084 -81.44717744 214.47127328 -85.10546875 209.94921875 C-87.29048444 207.30899146 -89.54718266 204.76317155 -91.85546875 202.23046875 C-95.77438127 197.93055084 -99.44717744 193.47127328 -103.10546875 188.94921875 C-105.29048444 186.30899146 -107.54718266 183.76317155 -109.85546875 181.23046875 C-113.77438127 176.93055084 -117.44717744 172.47127328 -121.10546875 167.94921875 C-123.29048444 165.30899146 -125.54718266 162.76317155 -127.85546875 160.23046875 C-131.77438127 155.93055084 -135.44717744 151.47127328 -139.10546875 146.94921875 C-141.29048444 144.30899146 -143.54718266 141.76317155 -145.85546875 139.23046875 C-149.77438127 134.93055084 -153.44717744 130.47127328 -157.10546875 125.94921875 C-159.29048444 123.30899146 -161.54718266 120.76317155 -163.85546875 118.23046875 C-167.77438127 113.93055084 -171.44717744 109.47127328 -175.10546875 104.94921875 C-177.29048444 102.30899146 -179.54718266 99.76317155 -181.85546875 97.23046875 C-185.77438127 92.93055084 -189.44717744 88.47127328 -193.10546875 83.94921875 C-195.29048444 81.30899146 -197.54718266 78.76317155 -199.85546875 76.23046875 C-203.77438127 71.93055084 -207.44717744 67.47127328 -211.10546875 62.94921875 C-213.29048444 60.30899146 -215.54718266 57.76317155 -217.85546875 55.23046875 C-230.79514294 40.99455303 -230.79514294 40.99455303 -233.35546875 35.23046875 C-232.67742188 34.68519531 -231.999375 34.13992187 -231.30078125 33.578125 C-225.68792945 29.03031572 -220.25609867 24.37543418 -214.91796875 19.5078125 C-211.24456728 16.24318894 -207.43230338 13.16024891 -203.60546875 10.078125 C-201.33427126 8.27441714 -201.33427126 8.27441714 -199.35546875 6.23046875 C-196.34425527 6.33778663 -195.39542799 7.1883702 -193.3125 9.3828125 C-192.60480469 10.30191406 -191.89710938 11.22101563 -191.16796875 12.16796875 C-188.16885408 15.9720831 -185.12871441 19.65913417 -181.85546875 23.23046875 C-177.93655623 27.53038666 -174.26376006 31.98966422 -170.60546875 36.51171875 C-168.42045306 39.15194604 -166.16375484 41.69776595 -163.85546875 44.23046875 C-159.93655623 48.53038666 -156.26376006 52.98966422 -152.60546875 57.51171875 C-150.42045306 60.15194604 -148.16375484 62.69776595 -145.85546875 65.23046875 C-142.03939432 69.42157118 -138.45125726 73.75468788 -134.88671875 78.16015625 C-131.32196576 82.4840696 -127.64450063 86.70655284 -123.95996094 90.9284668 C-120.70830148 94.65628352 -117.50795143 98.41829988 -114.35546875 102.23046875 C-114.2575 101.19148438 -114.15953125 100.1525 -114.05859375 99.08203125 C-111.26009333 71.93853419 -93.75638186 49.8622452 -73.40869141 32.57666016 C-51.56550799 14.82391935 -28.33514045 1.94618543 0 0 Z " fill="#7ED957" transform="translate(885.35546875,109.76953125)"/>
<path d="M0 0 C9.58919742 7.74661072 19.22586065 16.15371198 27.09765625 25.66796875 C28.52538101 27.39065204 30.00315517 29.0717969 31.49609375 30.73828125 C54.35813347 56.35894385 73.58478725 88.02281698 72.1875 123.47265625 C70.69378144 147.42016564 60.07021221 165.51691623 43.875 182.8125 C42.41574117 184.4783564 40.95741514 186.14503036 39.5 187.8125 C20.24194817 209.05933515 -7.01225185 226.02639789 -36.125 228.8125 C-40.79762748 228.95234128 -45.45229395 228.93528644 -50.125 228.8125 C-46.53764879 236.22373106 -42.71659998 243.29552003 -38.25 250.21875 C-37.125 252.8125 -37.125 252.8125 -37.54296875 254.80859375 C-39.84360635 257.72273471 -42.58853551 260.02273879 -45.4375 262.375 C-46.70069334 263.43208556 -47.96370981 264.4893825 -49.2265625 265.546875 C-49.87141602 266.08376953 -50.51626953 266.62066406 -51.18066406 267.17382812 C-53.08991447 268.78293017 -54.96637727 270.42316992 -56.8359375 272.078125 C-57.71318481 272.84660767 -57.71318481 272.84660767 -58.6081543 273.63061523 C-59.72797572 274.61248415 -60.84165785 275.60140789 -61.94848633 276.59790039 C-63.48046875 277.92578125 -63.48046875 277.92578125 -66.125 279.8125 C-69.88978859 278.55757047 -70.81880667 276.98152481 -73.25 273.875 C-76.27573542 270.0805907 -79.34897726 266.39313538 -82.625 262.8125 C-86.54391252 258.51258209 -90.21670869 254.05330453 -93.875 249.53125 C-96.06001569 246.89102271 -98.31671391 244.3452028 -100.625 241.8125 C-104.54391252 237.51258209 -108.21670869 233.05330453 -111.875 228.53125 C-114.06001569 225.89102271 -116.31671391 223.3452028 -118.625 220.8125 C-122.54391252 216.51258209 -126.21670869 212.05330453 -129.875 207.53125 C-132.06001569 204.89102271 -134.31671391 202.3452028 -136.625 199.8125 C-140.54391252 195.51258209 -144.21670869 191.05330453 -147.875 186.53125 C-150.06001569 183.89102271 -152.31671391 181.3452028 -154.625 178.8125 C-157.64782421 175.49260514 -160.55012161 172.11485888 -163.375 168.625 C-168.59018515 162.18538007 -174.03831752 155.95794597 -179.47851562 149.70898438 C-182.06137409 146.73394811 -184.62556914 143.7430594 -187.1875 140.75 C-187.67839111 140.17660889 -188.16928223 139.60321777 -188.67504883 139.01245117 C-189.66385203 137.85719482 -190.65254049 136.70184024 -191.64111328 135.54638672 C-194.13395524 132.63355954 -196.62962766 129.72315939 -199.125 126.8125 C-200.1250134 125.64584482 -201.12501341 124.47917816 -202.125 123.3125 C-202.62 122.735 -203.115 122.1575 -203.625 121.5625 C-221.125 101.14583333 -238.625 80.72916667 -256.125 60.3125 C-256.62008057 59.73491943 -257.11516113 59.15733887 -257.62524414 58.56225586 C-258.62448396 57.39644896 -259.62367023 56.23059614 -260.62280273 55.06469727 C-263.13399461 52.13449602 -265.64613393 49.20511709 -268.16015625 46.27734375 C-273.56815916 39.97714657 -278.95300501 33.65870781 -284.30810547 27.31347656 C-287.86590543 23.10391597 -291.47182881 18.93946131 -295.125 14.8125 C-293.60647523 10.97304818 -291.34697262 9.13758945 -288.125 6.625 C-284.34948968 3.62130624 -280.68439005 0.56957006 -277.125 -2.6875 C-273.53487157 -5.94446451 -269.89994035 -9.13272091 -266.1875 -12.25 C-264.84365234 -13.38115234 -264.84365234 -13.38115234 -263.47265625 -14.53515625 C-261.125 -16.1875 -261.125 -16.1875 -258.125 -16.1875 C-256.1796875 -14.1328125 -256.1796875 -14.1328125 -254 -11.3125 C-250.97884149 -7.4896101 -247.91713089 -3.77996564 -244.625 -0.1875 C-240.70608748 4.11241791 -237.03329131 8.57169547 -233.375 13.09375 C-231.18998431 15.73397729 -228.93328609 18.2797972 -226.625 20.8125 C-222.70608748 25.11241791 -219.03329131 29.57169547 -215.375 34.09375 C-213.18998431 36.73397729 -210.93328609 39.2797972 -208.625 41.8125 C-204.70608748 46.11241791 -201.03329131 50.57169547 -197.375 55.09375 C-194.49140487 58.57809412 -191.4528028 61.90454024 -188.40625 65.24609375 C-185.10974735 68.95465923 -181.99264531 72.80098766 -178.875 76.66015625 C-177.30322462 78.66846185 -177.30322462 78.66846185 -176.125 79.8125 C-176.11082031 79.02488281 -176.09664063 78.23726562 -176.08203125 77.42578125 C-174.92867146 51.08553735 -156.50566617 29.99454387 -138.22900391 12.72558594 C-98.27949124 -23.59889552 -44.73776242 -34.95693418 0 0 Z " fill="#7ED957" transform="translate(583.125,444.1875)"/>
<path d="M0 0 C3.59721356 1.4954708 5.63097221 3.52706308 8.1875 6.4375 C8.97511719 7.33339844 9.76273438 8.22929688 10.57421875 9.15234375 C13.69337969 12.81396746 16.72486355 16.54184522 19.75 20.28125 C21.93501569 22.92147729 24.19171391 25.4672972 26.5 28 C30.41891252 32.29991791 34.09170869 36.75919547 37.75 41.28125 C39.93501569 43.92147729 42.19171391 46.4672972 44.5 49 C48.41891252 53.29991791 52.09170869 57.75919547 55.75 62.28125 C57.93501569 64.92147729 60.19171391 67.4672972 62.5 70 C66.41891252 74.29991791 70.09170869 78.75919547 73.75 83.28125 C75.93501569 85.92147729 78.19171391 88.4672972 80.5 91 C84.41891252 95.29991791 88.09170869 99.75919547 91.75 104.28125 C93.93501569 106.92147729 96.19171391 109.4672972 98.5 112 C102.41891252 116.29991791 106.09170869 120.75919547 109.75 125.28125 C111.93501569 127.92147729 114.19171391 130.4672972 116.5 133 C120.41891252 137.29991791 124.09170869 141.75919547 127.75 146.28125 C129.93501569 148.92147729 132.19171391 151.4672972 134.5 154 C137.61458668 157.41739372 140.5918662 160.9052235 143.5 164.5 C146.49107225 168.19700713 149.55790645 171.7874563 152.75 175.3125 C153.48476563 176.12589844 154.21953125 176.93929687 154.9765625 177.77734375 C156.21093984 179.13325245 157.45369944 180.48166721 158.7109375 181.81640625 C160.125 183.375 160.125 183.375 162 186 C161.49721699 190.65855446 158.24023883 192.71108364 154.8125 195.5 C153.52714097 196.57267372 152.24199041 197.6455973 150.95703125 198.71875 C150.29783691 199.26402344 149.63864258 199.80929687 148.95947266 200.37109375 C145.94269496 202.87893586 142.97261056 205.4401232 140 208 C138.83358653 209.00029532 137.66691898 210.00029445 136.5 211 C135.9225 211.495 135.345 211.99 134.75 212.5 C105 238 75.25 263.5 45.5 289 C44.92233887 289.49516113 44.34467773 289.99032227 43.74951172 290.50048828 C42.58456459 291.49896795 41.41952574 292.49734061 40.25439453 293.49560547 C37.31065191 296.01799047 34.36860066 298.54230145 31.4296875 301.0703125 C24.00920682 307.44928659 16.53781079 313.75990755 9 320 C0.8857715 311.97333511 -6.66470156 303.53565536 -13.8203125 294.6484375 C-15.97757399 292.02724881 -18.21311 289.50845719 -20.5 287 C-24.41891252 282.70008209 -28.09170869 278.24080453 -31.75 273.71875 C-33.93501569 271.07852271 -36.19171391 268.5327028 -38.5 266 C-42.41891252 261.70008209 -46.09170869 257.24080453 -49.75 252.71875 C-51.93501569 250.07852271 -54.19171391 247.5327028 -56.5 245 C-59.52282421 241.68010514 -62.42512161 238.30235888 -65.25 234.8125 C-70.46518515 228.37288007 -75.91331752 222.14544597 -81.35351562 215.89648438 C-83.93637409 212.92144811 -86.50056914 209.9305594 -89.0625 206.9375 C-89.55339111 206.36410889 -90.04428223 205.79071777 -90.55004883 205.19995117 C-91.53885203 204.04469482 -92.52754049 202.88934024 -93.51611328 201.73388672 C-96.00895524 198.82105954 -98.50462766 195.91065939 -101 193 C-102.0000134 191.83334482 -103.00001341 190.66667816 -104 189.5 C-104.495 188.9225 -104.99 188.345 -105.5 187.75 C-111 181.33333333 -116.5 174.91666667 -122 168.5 C-122.4952417 167.9222583 -122.9904834 167.3445166 -123.50073242 166.74926758 C-124.49845195 165.58518023 -125.49601114 164.42095544 -126.4934082 163.2565918 C-129.02698743 160.29930113 -131.56350137 157.34461631 -134.10546875 154.39453125 C-136.60812001 151.48856993 -139.10292094 148.57609973 -141.58935547 145.65625 C-142.52428738 144.55853832 -143.460794 143.46216575 -144.39892578 142.3671875 C-145.69040381 140.85557646 -146.97051027 139.33427182 -148.25 137.8125 C-149.34054688 136.52279297 -149.34054688 136.52279297 -150.453125 135.20703125 C-152 133 -152 133 -152 130 C-149.98046875 127.8359375 -149.98046875 127.8359375 -147.1875 125.375 C-146.44197876 124.71467773 -146.44197876 124.71467773 -145.68139648 124.04101562 C-141.49462723 120.36051344 -137.1955412 116.81917635 -132.859375 113.31640625 C-129.65271738 110.71866313 -126.47980239 108.08294669 -123.3125 105.4375 C-122.78277588 104.99535156 -122.25305176 104.55320312 -121.70727539 104.09765625 C-120.47115583 103.06553648 -119.23552151 102.03283561 -118 101 C-114.0554025 104.14326295 -110.81631511 107.19840804 -107.6875 111.1875 C-104.72318298 114.89662029 -101.70316027 118.49497123 -98.5 122 C-94.58108748 126.29991791 -90.90829131 130.75919547 -87.25 135.28125 C-85.06498431 137.92147729 -82.80828609 140.4672972 -80.5 143 C-76.58108748 147.29991791 -72.90829131 151.75919547 -69.25 156.28125 C-67.06498431 158.92147729 -64.80828609 161.4672972 -62.5 164 C-58.58108748 168.29991791 -54.90829131 172.75919547 -51.25 177.28125 C-49.06498431 179.92147729 -46.80828609 182.4672972 -44.5 185 C-40.58108748 189.29991791 -36.90829131 193.75919547 -33.25 198.28125 C-31.06498431 200.92147729 -28.80828609 203.4672972 -26.5 206 C-22.58108748 210.29991791 -18.90829131 214.75919547 -15.25 219.28125 C-13.06498431 221.92147729 -10.80828609 224.4672972 -8.5 227 C-4.57334591 231.30907606 -0.88501778 235.77349034 2.78125 240.3046875 C6.0742501 244.30498692 9.52128406 248.16109003 13 252 C15.73362753 250.73063053 17.92280422 249.37591334 20.1796875 247.3828125 C20.77144775 246.86452881 21.36320801 246.34624512 21.97290039 245.81225586 C22.9144397 244.97706421 22.9144397 244.97706421 23.875 244.125 C25.22493171 242.94103136 26.57519967 241.75744601 27.92578125 240.57421875 C28.94792725 239.67582275 28.94792725 239.67582275 29.99072266 238.75927734 C32.99491744 236.12887302 36.02709935 233.5317638 39.0625 230.9375 C40.22007524 229.94664164 41.37762731 228.95575621 42.53515625 227.96484375 C43.10637207 227.47612793 43.67758789 226.98741211 44.26611328 226.48388672 C47.17894046 223.99104476 50.08934061 221.49537234 53 219 C54.16665518 217.9999866 55.33332184 216.99998659 56.5 216 C57.0775 215.505 57.655 215.01 58.25 214.5 C70.5 204 82.75 193.5 95 183 C93.38182825 179.59170063 91.52234036 177.20469242 88.9375 174.4375 C85.66981527 170.87703072 82.53520807 167.2606708 79.5 163.5 C76.5918662 159.9052235 73.61458668 156.41739372 70.5 153 C66.58108748 148.70008209 62.90829131 144.24080453 59.25 139.71875 C57.06498431 137.07852271 54.80828609 134.5327028 52.5 132 C48.58108748 127.70008209 44.90829131 123.24080453 41.25 118.71875 C39.06498431 116.07852271 36.80828609 113.5327028 34.5 111 C30.58108748 106.70008209 26.90829131 102.24080453 23.25 97.71875 C21.06498431 95.07852271 18.80828609 92.5327028 16.5 90 C12.58108748 85.70008209 8.90829131 81.24080453 5.25 76.71875 C3.06498431 74.07852271 0.80828609 71.5327028 -1.5 69 C-5.41891252 64.70008209 -9.09170869 60.24080453 -12.75 55.71875 C-14.93501569 53.07852271 -17.19171391 50.5327028 -19.5 48 C-22.74253357 44.42005994 -25.93950963 40.81003089 -29.0625 37.125 C-29.81660156 36.24070312 -30.57070312 35.35640625 -31.34765625 34.4453125 C-33 32 -33 32 -33 28 C-30.84514135 25.8270333 -28.73448497 23.92685036 -26.375 22 C-25.00129069 20.84636773 -23.62759306 19.69272155 -22.25390625 18.5390625 C-21.5489502 17.95415039 -20.84399414 17.36923828 -20.11767578 16.76660156 C-16.81383806 14.01048331 -13.56712447 11.1888668 -10.3125 8.375 C-6.95233335 5.47522043 -3.59605562 2.60735906 0 0 Z " fill="#7ED957" transform="translate(181,684)"/>
<path d="M0 0 C0.99 0.3403125 1.98 0.680625 3 1.03125 C14.2148449 5.26542614 22.90688918 12.28077459 31 21 C27.24034086 26.05609333 22.80503283 29.72007416 17.89453125 33.64453125 C15.18012565 35.85342002 12.58281236 38.13963081 10 40.5 C4.83146925 45.21150633 -0.55038059 49.61751139 -6 54 C-8.67479737 53.00719233 -11.09042034 51.94655092 -13.55078125 50.4921875 C-22.8651464 45.03794822 -31.60234377 44.5300761 -42.0078125 46.59765625 C-54.98417952 50.66459344 -67.75086697 60.84938745 -74.5 72.5625 C-78.14436902 80.35630006 -78.43086864 88.99797182 -76.0703125 97.25 C-73.73886309 103.24029337 -70.98027651 106.71709933 -65.140625 109.3125 C-48.36310998 114.70089898 -25.18899627 99.75941637 -10.625 92.5625 C18.75774243 78.07002687 47.67154899 65.62986663 80.6171875 75.80859375 C96.14252397 82.02425337 109.10436819 95.80548956 115.86572266 110.9375 C121.86523468 125.8629318 123.90777459 142.66207956 118 158 C117.37931641 159.7325 117.37931641 159.7325 116.74609375 161.5 C105.50685728 191.95687016 81.23807044 216.51622825 51.953125 230.24609375 C29.62327235 240.32508638 3.05274283 243.18807004 -20.375 234.875 C-32.07362349 230.08346799 -41.98650482 223.97195834 -51 215 C-49.74507047 211.23521141 -48.16902481 210.30619333 -45.0625 207.875 C-41.2680907 204.84926458 -37.58063538 201.77602274 -34 198.5 C-27.2542322 192.35672501 -20.12553679 186.69275381 -13 181 C-9.90889158 182.48145288 -7.03314625 184.18807087 -4.125 186 C6.57583755 192.43930342 19.26323381 193.77253361 31.4375 191 C46.78423627 186.22887998 63.20053334 173.08935913 71 159 C71.42925781 158.2471875 71.85851562 157.494375 72.30078125 156.71875 C75.93145668 149.23282127 76.3284852 141.09168259 75 133 C71.69991704 125.90939354 67.07656853 121.19139365 60 118 C59.01 117.34 58.02 116.68 57 116 C33.70268118 113.29432116 13.23119821 125.271073 -6.18457031 136.56103516 C-23.25059338 146.42272715 -42.18787066 156.45731127 -62.3125 156.3125 C-63.14136719 156.30686035 -63.97023438 156.3012207 -64.82421875 156.29541016 C-81.09901149 155.97536458 -93.46502244 149.62788266 -104.9140625 138.34375 C-118.49361507 124.16941135 -124.63974322 106.13676365 -124.23828125 86.81640625 C-123.35199548 64.57194327 -110.86129502 45.38638984 -95.17578125 30.23828125 C-93.16350919 28.42850197 -91.09866485 26.70896388 -89 25 C-88.08863281 24.23945312 -87.17726563 23.47890625 -86.23828125 22.6953125 C-62.61477116 3.66608606 -30.3448618 -10.93826414 0 0 Z " fill="#7ED958" transform="translate(354,586)"/>
<path d="M0 0 C17.40319426 -1.02083994 29.99518845 7.62985368 42.640625 18.8125 C44.25343411 20.30320369 45.85807769 21.80280639 47.453125 23.3125 C48.14148438 23.95960938 48.82984375 24.60671875 49.5390625 25.2734375 C55.00084521 30.56251561 59.7409207 36.35571018 64.453125 42.3125 C65.27039063 43.32441406 66.08765625 44.33632813 66.9296875 45.37890625 C79.67231263 61.33744491 91.13671232 79.12335104 89.453125 100.3125 C88.57737576 104.24282038 87.20871681 107.69491688 85.453125 111.3125 C85.04835938 112.1478125 84.64359375 112.983125 84.2265625 113.84375 C75.87362961 128.67355599 61.06581332 140.45093407 47.453125 150.3125 C46.88577637 150.72999512 46.31842773 151.14749023 45.73388672 151.57763672 C32.15958009 161.52648351 20.43038484 166.10185678 3.453125 164.3125 C-0.91109287 163.19256837 -4.61599619 161.49321513 -8.546875 159.3125 C-9.42214844 158.85101562 -10.29742187 158.38953125 -11.19921875 157.9140625 C-38.40100466 142.17617168 -64.22115258 109.19024154 -73.15234375 79.28515625 C-75.32899278 68.40191112 -72.48322759 58.69623702 -66.75 49.3984375 C-53.27207026 30.25977727 -30.68840192 8.14964613 -7.671875 0.8125 C-5.1275197 0.37756747 -2.57271545 0.22667097 0 0 Z " fill="#FBFBFB" transform="translate(516.546875,470.6875)"/>
<path d="M0 0 C13.15352397 9.59720082 24.85681473 21.93196941 34.6640625 34.87109375 C35.09525391 35.42587402 35.52644531 35.9806543 35.97070312 36.55224609 C48.18877024 52.29475565 59.77123435 70.03680302 57.6640625 90.87109375 C54.75213134 103.61703243 47.82437414 112.24509989 38.6640625 121.24609375 C37.82464111 122.07608887 36.98521973 122.90608398 36.12036133 123.76123047 C29.35611504 130.36367119 22.40537013 136.44657689 14.6640625 141.87109375 C14.07254395 142.28568848 13.48102539 142.7002832 12.87158203 143.12744141 C8.89189126 145.87656291 4.83792381 148.4266209 0.6640625 150.87109375 C-0.54056641 151.58652344 -0.54056641 151.58652344 -1.76953125 152.31640625 C-10.58110366 156.68401407 -22.42555306 156.31378601 -31.80859375 154.0234375 C-34.82913625 152.84944536 -37.53327609 151.49599858 -40.3359375 149.87109375 C-41.28210938 149.33613281 -42.22828125 148.80117188 -43.203125 148.25 C-68.44479645 132.68318671 -94.19041505 103.03859546 -103.4765625 74.703125 C-106.10177743 62.99705299 -105.82479645 51.86181364 -99.7265625 41.2890625 C-93.29622557 31.72463527 -85.31067755 23.07808197 -76.3359375 15.87109375 C-75.4696875 15.11828125 -74.6034375 14.36546875 -73.7109375 13.58984375 C-51.01335867 -5.96870822 -27.5467507 -17.57960086 0 0 Z " fill="#FBFBFB" transform="translate(912.3359375,168.12890625)"/>
<path d="M0 0 C3.2411173 1.69946226 5.2543738 4.42542204 7.5234375 7.21875 C8.58262525 8.49017355 9.64254801 9.76098507 10.703125 11.03125 C11.52828613 12.02705078 11.52828613 12.02705078 12.37011719 13.04296875 C15.78438927 17.12377204 19.30674592 21.11187001 22.80834961 25.11767578 C30.0859375 33.48332048 30.0859375 33.48332048 30.0859375 36.09375 C28.51307066 37.50813406 26.87453754 38.84979401 25.2109375 40.15625 C21.39758188 43.20400865 17.68784941 46.29875341 14.0859375 49.59375 C9.78601959 53.51266252 5.32674203 57.18545869 0.8046875 60.84375 C-1.83553979 63.02876569 -4.3813597 65.28546391 -6.9140625 67.59375 C-11.21398041 71.51266252 -15.67325797 75.18545869 -20.1953125 78.84375 C-22.83553979 81.02876569 -25.3813597 83.28546391 -27.9140625 85.59375 C-32.21398041 89.51266252 -36.67325797 93.18545869 -41.1953125 96.84375 C-43.83553979 99.02876569 -46.3813597 101.28546391 -48.9140625 103.59375 C-53.21398041 107.51266252 -57.67325797 111.18545869 -62.1953125 114.84375 C-64.83553979 117.02876569 -67.3813597 119.28546391 -69.9140625 121.59375 C-74.21398041 125.51266252 -78.67325797 129.18545869 -83.1953125 132.84375 C-85.83553979 135.02876569 -88.3813597 137.28546391 -90.9140625 139.59375 C-95.21398041 143.51266252 -99.67325797 147.18545869 -104.1953125 150.84375 C-106.83553979 153.02876569 -109.3813597 155.28546391 -111.9140625 157.59375 C-117.083089 162.3018442 -122.48007895 166.69724062 -127.9140625 171.09375 C-129.92085171 172.75254108 -131.91833579 174.42165465 -133.9140625 176.09375 C-137.9930328 174.54525202 -140.24709359 171.63718812 -142.9140625 168.34375 C-143.88348195 167.17135161 -144.85355829 165.99949613 -145.82421875 164.828125 C-146.32711426 164.21775391 -146.83000977 163.60738281 -147.34814453 162.97851562 C-149.97579016 159.81583645 -152.66584912 156.70711415 -155.3515625 153.59375 C-158.61190384 149.81404349 -161.82089443 146.01322538 -164.9140625 142.09375 C-163.62142123 139.19500583 -162.34918682 137.32772474 -159.9296875 135.28125 C-159.03237915 134.51349243 -159.03237915 134.51349243 -158.11694336 133.73022461 C-157.15026733 132.92016968 -157.15026733 132.92016968 -156.1640625 132.09375 C-155.4944751 131.52342041 -154.8248877 130.95309082 -154.13500977 130.36547852 C-152.74410094 129.18128442 -151.35092698 127.99974602 -149.95556641 126.82080078 C-147.48203941 124.72827149 -145.02416233 122.61799771 -142.56738281 120.50585938 C-140.83982588 119.02116332 -139.10978059 117.53942047 -137.37890625 116.05859375 C-133.88874072 113.07250854 -130.40121018 110.08335842 -126.9140625 107.09375 C-125.74740732 106.0937366 -124.58074066 105.09373659 -123.4140625 104.09375 C-122.8365625 103.59875 -122.2590625 103.10375 -121.6640625 102.59375 C-110.58072917 93.09375 -99.49739583 83.59375 -88.4140625 74.09375 C-87.8363208 73.5985083 -87.2585791 73.1032666 -86.66333008 72.59301758 C-85.49924273 71.59529805 -84.33501794 70.59773886 -83.1706543 69.6003418 C-80.21336363 67.06676257 -77.25867881 64.53024863 -74.30859375 61.98828125 C-68.97570928 57.39768447 -63.63220305 52.83613602 -58.1640625 48.40625 C-53.78898503 44.85629679 -49.60857058 41.13811179 -45.4453125 37.34375 C-41.93606764 34.22442124 -38.28244127 31.29625867 -34.6328125 28.34375 C-31.99258521 26.15873431 -29.4467653 23.90203609 -26.9140625 21.59375 C-22.60231907 17.66466526 -18.1412946 13.96861275 -13.59375 10.31640625 C-10.20795977 7.50807587 -7.03449385 4.50097461 -3.88671875 1.4296875 C-1.9140625 0.09375 -1.9140625 0.09375 0 0 Z " fill="#7ED958" transform="translate(755.9140625,294.90625)"/>
</svg>
