<?xml version="1.0" encoding="UTF-8"?>
<svg version="1.1" xmlns="http://www.w3.org/2000/svg" width="1080" height="1080">
<path d="M0 0 C356.4 0 712.8 0 1080 0 C1080 356.4 1080 712.8 1080 1080 C723.6 1080 367.2 1080 0 1080 C0 723.6 0 367.2 0 0 Z " fill="#FEFEFE" transform="translate(0,0)"/>
<path d="M0 0 C1.76160333 1.50737777 3.51204193 3.02792 5.25 4.5625 C6.05695313 5.25988281 6.86390625 5.95726562 7.6953125 6.67578125 C18.46306382 16.14517027 28.45788937 26.22530471 37.25 37.5625 C38.29145535 38.87516768 39.33313822 40.18765487 40.375 41.5 C47.42341319 50.45630849 53.83644097 59.52523328 59.25 69.5625 C59.60433105 70.2112207 59.95866211 70.85994141 60.32373047 71.52832031 C71.99863341 93.2925803 77.65491891 121.27593719 70.71142578 145.43652344 C65.97726291 160.56927316 58.23620688 173.17014869 47.25 184.5625 C46.09647328 185.88918305 44.95024213 187.22225575 43.8125 188.5625 C23.70894329 211.53139123 -5.02098263 231.88980759 -36.41015625 234.48046875 C-41.52329102 234.65972723 -46.63498363 234.6336517 -51.75 234.5625 C-47.85032864 241.93567384 -47.85032864 241.93567384 -43.5 249.046875 C-43.12681641 249.62219971 -42.75363281 250.19752441 -42.36914062 250.7902832 C-41.28942283 252.43977355 -40.19189948 254.07756654 -39.09375 255.71484375 C-37.75 258.5625 -37.75 258.5625 -38.22265625 260.68359375 C-40.156591 263.06267972 -42.26529858 264.80395169 -44.6875 266.6875 C-49.7467061 270.71096312 -54.53275151 274.94559666 -59.2890625 279.3203125 C-62.04174324 281.82831051 -64.85812552 284.21773691 -67.75 286.5625 C-71.58945182 285.04397523 -73.42491055 282.78447262 -75.9375 279.5625 C-78.94119376 275.78698968 -81.99292994 272.12189005 -85.25 268.5625 C-89.16891252 264.26258209 -92.84170869 259.80330453 -96.5 255.28125 C-98.68501569 252.64102271 -100.94171391 250.0952028 -103.25 247.5625 C-107.16891252 243.26258209 -110.84170869 238.80330453 -114.5 234.28125 C-116.68501569 231.64102271 -118.94171391 229.0952028 -121.25 226.5625 C-125.16891252 222.26258209 -128.84170869 217.80330453 -132.5 213.28125 C-134.68501569 210.64102271 -136.94171391 208.0952028 -139.25 205.5625 C-142.27282421 202.24260514 -145.17512161 198.86485888 -148 195.375 C-153.21518515 188.93538007 -158.66331752 182.70794597 -164.10351562 176.45898438 C-166.68637409 173.48394811 -169.25056914 170.4930594 -171.8125 167.5 C-172.30339111 166.92660889 -172.79428223 166.35321777 -173.30004883 165.76245117 C-174.28885203 164.60719482 -175.27754049 163.45184024 -176.26611328 162.29638672 C-178.75895524 159.38355954 -181.25462766 156.47315939 -183.75 153.5625 C-184.7500134 152.39584482 -185.75001341 151.22917816 -186.75 150.0625 C-187.245 149.485 -187.74 148.9075 -188.25 148.3125 C-209.75 123.22916667 -231.25 98.14583333 -252.75 73.0625 C-253.2452417 72.4847583 -253.7404834 71.9070166 -254.25073242 71.31176758 C-255.24845195 70.14768023 -256.24601114 68.98345544 -257.2434082 67.8190918 C-259.77698743 64.86180113 -262.31350137 61.90711631 -264.85546875 58.95703125 C-269.44606553 53.62414678 -274.00761398 48.28064055 -278.4375 42.8125 C-281.97928241 38.44749249 -285.68931145 34.27678883 -289.47265625 30.12109375 C-294.16909911 24.84464422 -298.82870712 19.44443933 -302.75 13.5625 C-296.56561317 7.83267159 -290.30410586 2.30880357 -283.7421875 -2.98828125 C-277.98836778 -7.69800052 -272.37952875 -12.58049053 -266.75 -17.4375 C-263.1134792 -14.70375185 -260.31054579 -11.8829341 -257.5 -8.3125 C-254.51360694 -4.58445303 -251.472137 -0.96382476 -248.25 2.5625 C-244.33108748 6.86241791 -240.65829131 11.32169547 -237 15.84375 C-234.81498431 18.48397729 -232.55828609 21.0297972 -230.25 23.5625 C-226.33108748 27.86241791 -222.65829131 32.32169547 -219 36.84375 C-216.81498431 39.48397729 -214.55828609 42.0297972 -212.25 44.5625 C-208.33108748 48.86241791 -204.65829131 53.32169547 -201 57.84375 C-198.11758297 61.32667058 -195.0802038 64.65176497 -192.03515625 67.9921875 C-188.12335788 72.39212481 -184.43921194 76.97496931 -180.75 81.5625 C-180.68683594 80.593125 -180.62367188 79.62375 -180.55859375 78.625 C-178.30878451 51.83978983 -160.25935707 29.12415257 -140.5859375 11.90234375 C-126.54284882 0.31582843 -110.7955395 -10.81650532 -93.75 -17.4375 C-93.02167969 -17.73011719 -92.29335938 -18.02273438 -91.54296875 -18.32421875 C-60.82027186 -29.67224192 -24.85770358 -20.03977789 0 0 Z " fill="#FEBD59" transform="translate(591.75,436.4375)"/>
<path d="M0 0 C1.3327188 1.46690559 2.58913869 3.00322501 3.8125 4.5625 C7.55104116 9.23567645 11.37930425 13.80206162 15.3125 18.3125 C16.43237439 19.59888632 17.55216557 20.88534509 18.671875 22.171875 C19.22681641 22.80931641 19.78175781 23.44675781 20.35351562 24.10351562 C22.93637409 27.07855189 25.50056914 30.0694406 28.0625 33.0625 C28.55339111 33.63589111 29.04428223 34.20928223 29.55004883 34.80004883 C30.53885203 35.95530518 31.52754049 37.11065976 32.51611328 38.26611328 C35.00895524 41.17894046 37.50462766 44.08934061 40 47 C41.0000134 48.16665518 42.00001341 49.33332184 43 50.5 C43.495 51.0775 43.99 51.655 44.5 52.25 C54 63.33333333 63.5 74.41666667 73 85.5 C73.49508057 86.07758057 73.99016113 86.65516113 74.50024414 87.25024414 C75.49948396 88.41605104 76.49867023 89.58190386 77.49780273 90.74780273 C80.00899461 93.67800398 82.52113393 96.60738291 85.03515625 99.53515625 C90.3327656 105.70659807 95.61015999 111.89401541 100.85791016 118.10791016 C105.70396642 123.84168764 110.59313781 129.53823153 115.48388672 135.23388672 C117.99100985 138.15442275 120.49537328 141.07732311 123 144 C123.99998659 145.16667816 124.9999866 146.33334482 126 147.5 C128 149.83333333 130 152.16666667 132 154.5 C132.49508057 155.07758057 132.99016113 155.65516113 133.50024414 156.25024414 C134.49948396 157.41605104 135.49867023 158.58190386 136.49780273 159.74780273 C139.00899461 162.67800398 141.52113393 165.60738291 144.03515625 168.53515625 C150.7245013 176.3279206 157.37664924 184.15106858 164 192 C162.70735873 194.89874417 161.43512432 196.76602526 159.015625 198.8125 C158.11831665 199.58025757 158.11831665 199.58025757 157.20288086 200.36352539 C156.55843018 200.90356201 155.91397949 201.44359863 155.25 202 C154.5804126 202.57032959 153.9108252 203.14065918 153.22094727 203.72827148 C151.83003844 204.91246558 150.43686448 206.09400398 149.04150391 207.27294922 C146.56771369 209.36570119 144.10955697 211.47617617 141.65258789 213.58862305 C139.92941599 215.06944707 138.2033567 216.54683984 136.4765625 218.0234375 C134.11334439 220.04504983 131.75436957 222.07146437 129.3984375 224.1015625 C124.06449936 228.69377135 118.71957787 233.25644957 113.25 237.6875 C108.87492253 241.23745321 104.69450808 244.95563821 100.53125 248.75 C97.02200514 251.86932876 93.36837877 254.79749133 89.71875 257.75 C87.07852271 259.93501569 84.5327028 262.19171391 82 264.5 C77.70008209 268.41891252 73.24080453 272.09170869 68.71875 275.75 C66.07852271 277.93501569 63.5327028 280.19171391 61 282.5 C57.68010514 285.52282421 54.30235888 288.42512161 50.8125 291.25 C45.0436879 295.92192529 39.44907053 300.77833282 33.8515625 305.65234375 C29.52437461 309.41973594 25.16884896 313.15363879 20.80224609 316.87524414 C16.98035747 320.13768412 13.22863203 323.4655755 9.55078125 326.890625 C8 328 8 328 5 328 C3.0546875 325.9453125 3.0546875 325.9453125 0.875 323.125 C-2.14615851 319.3021101 -5.20786911 315.59246564 -8.5 312 C-12.41891252 307.70008209 -16.09170869 303.24080453 -19.75 298.71875 C-21.93501569 296.07852271 -24.19171391 293.5327028 -26.5 291 C-30.41891252 286.70008209 -34.09170869 282.24080453 -37.75 277.71875 C-39.93501569 275.07852271 -42.19171391 272.5327028 -44.5 270 C-48.41891252 265.70008209 -52.09170869 261.24080453 -55.75 256.71875 C-57.93501569 254.07852271 -60.19171391 251.5327028 -62.5 249 C-66.41891252 244.70008209 -70.09170869 240.24080453 -73.75 235.71875 C-75.93501569 233.07852271 -78.19171391 230.5327028 -80.5 228 C-84.41891252 223.70008209 -88.09170869 219.24080453 -91.75 214.71875 C-93.93501569 212.07852271 -96.19171391 209.5327028 -98.5 207 C-102.41891252 202.70008209 -106.09170869 198.24080453 -109.75 193.71875 C-111.93501569 191.07852271 -114.19171391 188.5327028 -116.5 186 C-120.41891252 181.70008209 -124.09170869 177.24080453 -127.75 172.71875 C-129.93501569 170.07852271 -132.19171391 167.5327028 -134.5 165 C-138.34965206 160.77071097 -141.98442351 156.40541574 -145.58203125 151.9609375 C-149.97867546 146.57700161 -154.49658545 141.29466869 -159 136 C-150.94543641 127.85756844 -142.4758226 120.26499499 -133.55859375 113.08203125 C-129.95473237 110.14942344 -126.46840205 107.09075369 -123 104 C-114.8857715 112.02666489 -107.33529844 120.46434464 -100.1796875 129.3515625 C-98.02242601 131.97275119 -95.78689 134.49154281 -93.5 137 C-90.47717579 140.31989486 -87.57487839 143.69764112 -84.75 147.1875 C-79.53481485 153.62711993 -74.08668248 159.85455403 -68.64648438 166.10351562 C-66.06362591 169.07855189 -63.49943086 172.0694406 -60.9375 175.0625 C-60.44660889 175.63589111 -59.95571777 176.20928223 -59.44995117 176.80004883 C-58.46114797 177.95530518 -57.47245951 179.11065976 -56.48388672 180.26611328 C-53.99104476 183.17894046 -51.49537234 186.08934061 -49 189 C-47.9999866 190.16665518 -46.99998659 191.33332184 -46 192.5 C-45.505 193.0775 -45.01 193.655 -44.5 194.25 C-43 196 -41.5 197.75 -40 199.5 C-39.50491943 200.07758057 -39.00983887 200.65516113 -38.49975586 201.25024414 C-37.50051604 202.41605104 -36.50132977 203.58190386 -35.50219727 204.74780273 C-32.99100539 207.67800398 -30.47886607 210.60738291 -27.96484375 213.53515625 C-23.12423416 219.1742169 -18.29509763 224.82216261 -13.5 230.5 C-5.41641575 240.07077621 2.71311275 249.6043039 11 259 C19.57502594 255.19109313 26.60895783 247.50196248 33.46875 241.25 C36.97799486 238.13067124 40.63162123 235.20250867 44.28125 232.25 C46.92147729 230.06498431 49.4672972 227.80828609 52 225.5 C56.29991791 221.58108748 60.75919547 217.90829131 65.28125 214.25 C67.92147729 212.06498431 70.4672972 209.80828609 73 207.5 C78.1690265 202.7919058 83.56601645 198.39650938 89 194 C91.00678921 192.34120892 93.00427329 190.67209535 95 189 C91.19109313 180.42497406 83.50196248 173.39104217 77.25 166.53125 C74.13067124 163.02200514 71.20250867 159.36837877 68.25 155.71875 C66.06498431 153.07852271 63.80828609 150.5327028 61.5 148 C57.58108748 143.70008209 53.90829131 139.24080453 50.25 134.71875 C48.06498431 132.07852271 45.80828609 129.5327028 43.5 127 C40.47717579 123.68010514 37.57487839 120.30235888 34.75 116.8125 C29.53481485 110.37288007 24.08668248 104.14544597 18.64648438 97.89648438 C16.06362591 94.92144811 13.49943086 91.9305594 10.9375 88.9375 C10.44660889 88.36410889 9.95571777 87.79071777 9.44995117 87.19995117 C8.46114797 86.04469482 7.47245951 84.88934024 6.48388672 83.73388672 C3.99104476 80.82105954 1.49537234 77.91065939 -1 75 C-2.0000134 73.83334482 -3.00001341 72.66667816 -4 71.5 C-4.495 70.9225 -4.99 70.345 -5.5 69.75 C-16 57.5 -26.5 45.25 -37 33 C-35.2547564 29.23504123 -33.17810657 27.08838476 -30.0625 24.3125 C-29.57523438 23.87679687 -29.08796875 23.44109375 -28.5859375 22.9921875 C-24.42524766 19.30211554 -20.11829851 15.80162427 -15.78515625 12.31640625 C-11.78288747 8.98773109 -8.00203237 5.44094012 -4.21484375 1.87109375 C-2 0 -2 0 0 0 Z " fill="#FEBD59" transform="translate(182,681)"/>
<path d="M0 0 C3.18294709 2.45098016 6.23749067 5.03628087 9.22851562 7.71679688 C1.17395203 15.85922844 -7.29566177 23.45180189 -16.21289062 30.63476562 C-19.81675201 33.56737344 -23.30308232 36.62604319 -26.77148438 39.71679688 C-31.61269143 37.86914354 -36.13645543 35.52842472 -40.73632812 33.15429688 C-51.21188793 28.19289918 -61.51325157 28.52721555 -72.39257812 32.27148438 C-97.27878612 42.91645196 -121.68043869 64.91981126 -133.89648438 88.92773438 C-137.91700769 101.74315244 -134.72704418 115.34684522 -128.74609375 126.90673828 C-114.28815867 153.75822392 -88.29381656 185.2450283 -58.77148438 195.71679688 C-55.95192157 196.43503318 -53.73079549 196.61815317 -50.77148438 196.71679688 C-50.09085938 196.77738281 -49.41023437 196.83796875 -48.70898438 196.90039062 C-28.99038152 198.06237972 -12.17610757 181.95685778 1.56445312 169.78320312 C4.50035792 167.14454653 7.36694911 164.43589564 10.22851562 161.71679688 C11.12441406 160.89695312 12.0203125 160.07710937 12.94335938 159.23242188 C21.24355242 151.39404409 28.83490596 141.44206282 29.59960938 129.65039062 C29.63946303 128.15205918 29.66090935 126.65314955 29.66601562 125.15429688 C29.66988281 124.36724365 29.67375 123.58019043 29.67773438 122.76928711 C29.54962763 116.19914568 28.0769697 111.2121845 25.32226562 105.22070312 C24.22851562 102.71679688 24.22851562 102.71679688 24.22851562 99.71679688 C26.28320312 97.77148438 26.28320312 97.77148438 29.10351562 95.59179688 C32.92640552 92.57063836 36.63604999 89.50892776 40.22851562 86.21679688 C45.3965601 81.51106948 50.75934095 77.06767385 56.22851562 72.71679688 C56.93234375 72.11609375 57.63617187 71.51539063 58.36132812 70.89648438 C58.9775 70.5071875 59.59367188 70.11789063 60.22851562 69.71679688 C63.22851562 70.71679688 63.22851562 70.71679688 64.43945312 72.59936523 C64.82359375 73.41026611 65.20773437 74.22116699 65.60351562 75.05664062 C66.03148437 75.95576172 66.45945312 76.85488281 66.90039062 77.78125 C67.33867188 78.72935547 67.77695312 79.67746094 68.22851562 80.65429688 C68.66679688 81.56759766 69.10507812 82.48089844 69.55664062 83.421875 C72.36596263 89.40014607 74.55963113 95.32800656 76.22851562 101.71679688 C76.43114014 102.44229736 76.63376465 103.16779785 76.8425293 103.9152832 C82.56053292 126.3009272 77.3707484 149.8608052 66.60351562 169.71289062 C54.78300551 189.2906105 36.59360079 206.36670336 18.22851562 219.71679688 C16.96201172 220.65845703 16.96201172 220.65845703 15.66992188 221.61914062 C4.91262366 229.4089083 -6.3338572 236.02020035 -18.77148438 240.71679688 C-19.42890625 241.01199219 -20.08632813 241.3071875 -20.76367188 241.61132812 C-39.71967569 249.86898644 -62.75043833 246.47015634 -81.33081055 239.28833008 C-97.66621375 232.69627669 -112.01090289 223.10540987 -124.17773438 210.34570312 C-125.85095452 208.56324368 -125.85095452 208.56324368 -128.33398438 206.71679688 C-131.18925374 204.37401176 -133.44732808 201.76596749 -135.83789062 198.95898438 C-137.82378309 196.6561515 -139.88707234 194.44232264 -141.95898438 192.21679688 C-167.43042149 163.92484287 -184.75793709 131.30610312 -183.77148438 92.71679688 C-183.76503906 91.78867188 -183.75859375 90.86054688 -183.75195312 89.90429688 C-182.78397739 69.25414776 -170.07859677 51.45527806 -156.77148438 36.71679688 C-155.85167723 35.67560375 -154.93240297 34.63393961 -154.01367188 33.59179688 C-134.8770608 12.08696203 -109.55013194 -7.61441574 -81.77148438 -16.28320312 C-80.81113281 -16.58355469 -79.85078125 -16.88390625 -78.86132812 -17.19335938 C-51.83111174 -24.54038406 -22.24837673 -16.11596859 0 0 Z " fill="#FEBD5A" transform="translate(948.771484375,124.283203125)"/>
<path d="M0 0 C1.21816406 0.42539062 2.43632812 0.85078125 3.69140625 1.2890625 C11.42689305 4.10407305 17.85569572 7.43425544 24 13 C25.25876953 14.10021484 25.25876953 14.10021484 26.54296875 15.22265625 C28.71283464 17.13011975 30.8634549 19.05539039 33 21 C32.43189778 24.24282643 31.62835056 25.70604883 29.11328125 27.8125 C28.21029297 28.58098267 28.21029297 28.58098267 27.2890625 29.36499023 C26.63679687 29.90454346 25.98453125 30.44409668 25.3125 31 C24.64347656 31.565979 23.97445312 32.13195801 23.28515625 32.71508789 C21.88917111 33.89573839 20.49019261 35.07285786 19.08837891 36.24658203 C15.86886452 38.94970949 12.68661661 41.69576109 9.5 44.4375 C8.40659924 45.37410578 7.31286062 46.3103173 6.21875 47.24609375 C2.81040905 50.1616242 -0.59498062 53.08059152 -4 56 C-6.67479737 55.00719233 -9.09042034 53.94655092 -11.55078125 52.4921875 C-21.40354664 46.72267566 -31.37276873 46.27064755 -42.375 49.125 C-55.97769084 54.01559955 -67.55755171 63.71996031 -75 76 C-78.1647888 82.98890861 -78.23300202 92.34125183 -76.27734375 99.73046875 C-74.10607752 104.97842801 -71.13731256 109.10679414 -66.1875 112.09375 C-55.77039267 116.40940875 -43.75538325 111.268897 -34.01708984 107.30175781 C-25.650936 103.69208535 -17.5048646 99.59324447 -9.328125 95.578125 C19.16639348 81.59117317 48.61479408 68.40605142 81.0625 76.5625 C92.83491543 80.73932921 102.14160647 88.5139214 110 98 C110.50660156 98.59554687 111.01320313 99.19109375 111.53515625 99.8046875 C123.63401215 114.83953244 127.46011662 132.07497655 126 151 C125.4189368 154.88828125 124.39892382 158.33240947 123 162 C122.56300781 163.19109375 122.12601563 164.3821875 121.67578125 165.609375 C114.10043365 185.71024697 101.74170892 203.40267296 85 217 C84.04222656 217.78375 83.08445312 218.5675 82.09765625 219.375 C70.09019425 229.01249498 57.47086757 235.77569318 43 241 C42.29713867 241.26127686 41.59427734 241.52255371 40.87011719 241.79174805 C35.54807608 243.68958837 30.49345793 244.67928894 24.875 245.1875 C24.05314209 245.26572998 23.23128418 245.34395996 22.38452148 245.42456055 C10.43239907 246.4858655 -0.40894641 246.53486032 -12 243 C-13.22396484 242.69255859 -13.22396484 242.69255859 -14.47265625 242.37890625 C-28.94422058 238.59041543 -40.60372102 230.56071925 -51 220 C-45.61478412 215.0106027 -40.21583096 210.11060535 -34.5 205.5 C-29.6509091 201.5874288 -25.04590391 197.4593056 -20.4609375 193.2421875 C-17.70825676 190.73418949 -14.89187448 188.34476309 -12 186 C-8.10299814 187.41967281 -4.81614921 189.29209289 -1.3125 191.5 C9.16842116 197.63299645 20.82150548 198.52547604 32.796875 196.53515625 C47.72409753 192.51811707 63.26237312 180.80272602 72 168 C77.76297814 157.84242209 80.31177465 149.7932362 79 138 C75.82625104 129.21656192 69.55959963 124.68211743 61.8125 120.125 C42.35582644 114.38368649 21.70832099 126.17026261 5 135 C0.44415555 137.52856867 -4.05676397 140.14873452 -8.55297852 142.78149414 C-16.13523255 147.18341585 -23.89088678 150.69902689 -32 154 C-32.87269531 154.40863281 -33.74539063 154.81726563 -34.64453125 155.23828125 C-48.04387147 161.34909147 -69.11773173 162.69547309 -83 158 C-100.15520993 150.68672409 -113.95156122 134.93530879 -121.28515625 118.0390625 C-126.98379081 103.12865666 -127.4609135 84.44725388 -121.61328125 69.5234375 C-116.80472308 59.0214533 -111.67012486 49.73929378 -104 41 C-103.41347656 40.29359375 -102.82695312 39.5871875 -102.22265625 38.859375 C-79.65286663 12.0417565 -35.41999549 -12.92416845 0 0 Z " fill="#FEBD5A" transform="translate(355,581)"/>
<path d="M0 0 C0.7940625 0.3403125 1.588125 0.680625 2.40625 1.03125 C31.61763429 14.37472184 57.47012902 49.37810844 68.96875 78.44921875 C72.85139228 89.6118153 71.75213307 100.68066374 66.95703125 111.3125 C59.54289723 125.1826338 46.1618454 136.34915772 34 146 C33.3901123 146.48484863 32.78022461 146.96969727 32.15185547 147.46923828 C17.96369539 158.61206262 4.54052585 166.55118211 -14 165 C-36.57574184 160.88630829 -55.16861741 141.02640174 -68.88671875 123.671875 C-70.31584109 121.86499944 -71.77811781 120.08393703 -73.26953125 118.328125 C-84.67315899 104.88466607 -97.19354167 85.96713155 -96.3359375 67.4296875 C-93.42667156 46.38825247 -77.09703663 30.41771397 -61 18 C-59.98035156 17.17628906 -58.96070313 16.35257812 -57.91015625 15.50390625 C-50.37423414 9.46113433 -42.56374247 4.46385076 -34 0 C-33.319375 -0.38285156 -32.63875 -0.76570313 -31.9375 -1.16015625 C-22.91265225 -5.49127738 -8.85314536 -4.22226932 0 0 Z " fill="#FBFBFB" transform="translate(544,467)"/>
<path d="M0 0 C2.89874417 1.29264127 4.76602526 2.56487568 6.8125 4.984375 C7.32506348 5.58338623 7.83762695 6.18239746 8.36572266 6.79956055 C8.90503418 7.44320557 9.4443457 8.08685059 10 8.75 C10.56380371 9.41233643 11.12760742 10.07467285 11.70849609 10.75708008 C12.8859815 12.14076486 14.06091373 13.52662605 15.23339844 14.91455078 C16.94973002 16.94065696 18.67888289 18.95486876 20.4140625 20.96484375 C21.48440651 22.20570199 22.55472026 23.44658633 23.625 24.6875 C24.12128906 25.26274414 24.61757813 25.83798828 25.12890625 26.43066406 C27.52115353 29.21885809 29.84301323 32.02509542 32 35 C30.45427224 38.81628832 28.11228755 40.97025743 25.0625 43.6875 C24.57595947 44.12247803 24.08941895 44.55745605 23.58813477 45.00561523 C19.39103314 48.7274459 15.04843797 52.26232454 10.68359375 55.78515625 C8.05291443 57.95632827 5.52057576 60.20241357 3 62.5 C-0.31989486 65.52282421 -3.69764112 68.42512161 -7.1875 71.25 C-13.62711993 76.46518515 -19.85455403 81.91331752 -26.10351562 87.35351562 C-29.07855189 89.93637409 -32.0694406 92.50056914 -35.0625 95.0625 C-35.63589111 95.55339111 -36.20928223 96.04428223 -36.80004883 96.55004883 C-37.95530518 97.53885203 -39.11065976 98.52754049 -40.26611328 99.51611328 C-43.17894046 102.00895524 -46.08934061 104.50462766 -49 107 C-50.16665518 108.0000134 -51.33332184 109.00001341 -52.5 110 C-53.0775 110.495 -53.655 110.99 -54.25 111.5 C-70 125 -85.75 138.5 -101.5 152 C-102.07782227 152.49532227 -102.65564453 152.99064453 -103.25097656 153.50097656 C-104.41420412 154.49793597 -105.57761473 155.49468183 -106.74121094 156.49121094 C-109.71205617 159.03598537 -112.67933698 161.58473256 -115.640625 164.140625 C-122.32279971 169.90105848 -129.05357328 175.55809888 -136 181 C-141.05460881 177.24144473 -144.71808812 172.80819004 -148.640625 167.8984375 C-150.86968957 165.16008334 -153.1796499 162.54220167 -155.5625 159.9375 C-159.94043926 155.13564057 -164.00189996 150.12018261 -168 145 C-160.84430506 137.6057819 -153.02767468 130.97355696 -145.0390625 124.50390625 C-139.5649019 119.99370452 -134.24573694 115.3034171 -128.89648438 110.64648438 C-125.92144811 108.06362591 -122.9305594 105.49943086 -119.9375 102.9375 C-119.36410889 102.44660889 -118.79071777 101.95571777 -118.19995117 101.44995117 C-117.04469482 100.46114797 -115.88934024 99.47245951 -114.73388672 98.48388672 C-111.82105954 95.99104476 -108.91065939 93.49537234 -106 91 C-104.83334482 89.9999866 -103.66667816 88.99998659 -102.5 88 C-101.9225 87.505 -101.345 87.01 -100.75 86.5 C-80.33333333 69 -59.91666667 51.5 -39.5 34 C-38.9222583 33.5047583 -38.3445166 33.0095166 -37.74926758 32.49926758 C-36.58518023 31.50154805 -35.42095544 30.50398886 -34.2565918 29.5065918 C-31.29930113 26.97301257 -28.34461631 24.43649863 -25.39453125 21.89453125 C-19.10388394 16.47962398 -12.77910628 11.13277829 -6.3046875 5.9375 C-4.07415259 4.06233845 -2.02659607 2.09197014 0 0 Z " fill="#FEBD5A" transform="translate(767,283)"/>
</svg>
